#N canvas 401 22 708 679 10;
#X obj -43 146 hsl 128 15 0 1 0 0 empty empty empty -2 -8 0 10 -262144
-1 -1 6350 1;
#X obj -81 63 loadbang;
#X obj -52 115 0.5;
#X obj -75 96 bng 15 250 50 0 empty empty empty 17 7 0 10 -262144 -1
-1;
#X obj -78 163 1;
#X obj -65 207 -;
#X obj -85 245 *~;
#X obj -18 244 *~;
#X obj -34 208 inlet~;
#X obj -111 216 inlet~;
#X obj -120 282 outlet~;
#X obj -13 281 outlet~;
#X obj 120 106 maxlib/scale 0 270 0 1;
#X obj 79 58 inlet;
#X connect 0 0 5 1;
#X connect 0 0 7 1;
#X connect 1 0 3 0;
#X connect 2 0 0 0;
#X connect 3 0 2 0;
#X connect 3 0 4 0;
#X connect 4 0 5 0;
#X connect 5 0 6 1;
#X connect 6 0 10 0;
#X connect 7 0 11 0;
#X connect 8 0 7 0;
#X connect 9 0 6 0;
#X connect 12 0 0 0;
#X connect 13 0 12 0;
