#N canvas 0 22 753 556 10;
#X obj 27 -96 loadbang;
#X obj 27 -72 bng 15 250 50 0 empty reset empty 0 -6 0 8 -262144 -1
-1;
#X obj 28 -28 t b b;
#X obj 99 33 f;
#X obj 137 33 + 1;
#X msg 114 5 0;
#X obj 99 61 t b f;
#N canvas 0 22 454 304 (subpatch) 0;
#X array te_sine 8195 float 2;
#X coords 0 1 8195 -1 200 100 1;
#X restore 23 208 graph;
#N canvas 0 22 450 300 (subpatch) 0;
#X array te_square 8195 float 2;
#X coords 0 1 8195 -1 200 100 1;
#X restore 238 208 graph;
#N canvas 0 22 450 300 (subpatch) 0;
#X array te_ramp 8195 float 2;
#X coords 0 1 8195 -1 200 100 1;
#X restore 240 330 graph;
#N canvas 0 22 454 304 (subpatch) 0;
#X array te_pulse 8195 float 2;
#X coords 0 1 8195 -1 200 100 1;
#X restore 454 332 graph;
#N canvas 0 22 450 300 (subpatch) 0;
#X array te_noise 8196 float 2;
#X coords 0 -1 8196 1 200 100 1;
#X restore 24 329 graph;
#X obj 44 112 * 0.01;
#X obj 44 90 random 200;
#X obj 44 135 - 1;
#N canvas 220 57 466 316 (subpatch) 0;
#X array te_triangle 8192 float 2;
#X coords 0 1 8192 -1 200 100 1;
#X restore 451 208 graph;
#X obj 189 -47 t b b;
#X obj 238 6 f;
#X obj 270 6 + 1;
#X obj 187 34 sel 8191;
#X obj 188 -21 until 8192;
#X msg 265 -22 0;
#X obj 185 63 moses 2048;
#X obj 185 86 / 2048;
#X obj 321 86 / 2048;
#X obj 264 109 - 2;
#X obj 321 112 - 4;
#X obj 264 86 / 2048;
#X obj 264 133 * -1;
#X obj 264 63 moses 6144;
#X obj 269 34 t f f;
#X obj 390 -47 loadbang;
#X msg 390 -11 \; te_sine sinesum 8192 1 \; te_square sinesum 8192
1 0 0.333 0 0.2 0 0.1428 0 0.1111 \; te_square normalize \; te_ramp
sinesum 8192 1 0.5 0.3333 0.25 0.2 0.16666 0.1428 0.125 0.1111 0.1
\; te_ramp normalize \; te_pulse sinesum 8192 1 1 1 1 1 1 1 1 1 1 1
1 1 1 1 1 1 \; te_pulse normalize;
#X obj 44 158 tabwrite te_noise;
#X obj 185 161 tabwrite te_triangle;
#X text 242 -94 These tables were pinched from the excellent class
projects by students of Tom Erbe.;
#X obj 36 55 sel 8195;
#X obj 28 1 until 8196;
#X connect 0 0 1 0;
#X connect 1 0 2 0;
#X connect 1 0 16 0;
#X connect 2 0 37 0;
#X connect 2 1 5 0;
#X connect 3 0 4 0;
#X connect 3 0 6 0;
#X connect 3 0 36 0;
#X connect 4 0 3 1;
#X connect 5 0 3 1;
#X connect 6 0 13 0;
#X connect 6 1 33 1;
#X connect 12 0 14 0;
#X connect 13 0 12 0;
#X connect 14 0 33 0;
#X connect 16 0 20 0;
#X connect 16 1 21 0;
#X connect 17 0 18 0;
#X connect 17 0 19 0;
#X connect 17 0 30 0;
#X connect 18 0 17 1;
#X connect 19 0 20 1;
#X connect 20 0 17 0;
#X connect 21 0 17 1;
#X connect 22 0 23 0;
#X connect 22 1 29 0;
#X connect 23 0 34 0;
#X connect 24 0 26 0;
#X connect 25 0 28 0;
#X connect 26 0 34 0;
#X connect 27 0 25 0;
#X connect 28 0 34 0;
#X connect 29 0 27 0;
#X connect 29 1 24 0;
#X connect 30 0 22 0;
#X connect 30 1 34 1;
#X connect 31 0 32 0;
#X connect 36 0 37 1;
#X connect 37 0 3 0;
