#N canvas 539 43 708 626 10;
#X obj 17 171 inlet;
#X text 13 150 trigger;
#X obj 17 219 sel 0;
#X obj 221 389 del \$2;
#X msg 17 286 stop;
#X text 75 377 ATTACK;
#X obj 240 598 outlet~;
#X text 55 178 release;
#X obj 240 486 vline~;
#X obj 240 570 *~;
#X obj 267 183 inlet A;
#X obj 317 183 inlet D;
#X obj 368 183 inlet S;
#X obj 439 326 inlet R;
#N canvas 0 22 490 340 (subpatch) 0;
#X array \$0-envCurve 102 float 0;
#X coords 0 1 101 0 100 100 1;
#X restore 530 359 graph;
#X text 634 451 0;
#X text 633 351 1;
#X text 192 414 DECAY;
#X text 347 348 RELEASE;
#X obj 422 527 outlet switch;
#X obj 389 395 pack 0 \$5;
#X obj 240 520 tabread4~ \$0-envCurve;
#X obj 422 501 r \$0-activate;
#X obj 130 268 s \$0-activate;
#X msg 113 247 1;
#X obj 362 369 t b b;
#X obj 363 430 del \$5;
#X msg 363 455 0;
#X text 385 579 - when finished (i.e. \, end of release) \,;
#X text 384 548 This outlet may be used as follows:;
#X obj 156 183 inlet attackLevel;
#X obj 379 213 loadbang;
#X obj 67 398 pack 100 \$2;
#X text 257 -1 Multi-curve ADSR;
#X obj 255 547 r \$0-levelmult;
#X obj 141 242 s \$0-levelmult;
#X text 71 66 Curve Factors;
#X obj 492 183 inlet curveFactor;
#X text 7 113 > 1 - exponential (fat) curves \, varying with C;
#X text 19 98 1 - linear;
#X obj 17 249 t b b;
#X text 48 289 (*);
#N canvas 679 36 306 337 \$0-makeCurve 0;
#X msg 138 255 0;
#X msg 171 147 0;
#X obj 156 173 f;
#X obj 193 173 + 1;
#X obj 123 306 tabwrite \$0-envCurve;
#X obj 38 8 inlet curveFactor;
#X obj 188 254 / 100;
#X obj 115 64 moses 1;
#X obj 138 229 moses 2;
#N canvas 785 189 390 317 fatCurve 0;
#X obj 139 238 expr 1 - (pow( ($f1 / 102) \, $f2) );
#X text 181 219 exponential "fat" curve;
#X msg 171 74 0;
#X obj 139 100 f;
#X obj 167 100 + 1;
#X obj 139 275 tabwrite \$0-envCurve;
#X obj 123 8 inlet;
#X msg 44 238 0;
#X obj 82 209 f;
#X obj 82 185 b;
#X obj 43 161 moses 2;
#X obj 99 89 - 1;
#X msg 33 67 102;
#X obj 24 90 sel 0;
#X obj 64 90 f;
#X obj 64 67 until;
#X obj 43 116 t f f b f;
#X obj 139 128 t f f f;
#X obj 123 31 t b b b b f;
#X connect 0 0 5 0;
#X connect 2 0 3 1;
#X connect 3 0 17 0;
#X connect 4 0 3 1;
#X connect 6 0 18 0;
#X connect 7 0 5 0;
#X connect 8 0 0 0;
#X connect 9 0 8 0;
#X connect 10 0 7 0;
#X connect 10 1 9 0;
#X connect 11 0 14 1;
#X connect 12 0 14 0;
#X connect 13 0 15 1;
#X connect 14 0 16 0;
#X connect 15 0 14 0;
#X connect 16 0 13 0;
#X connect 16 1 8 1;
#X connect 16 2 3 0;
#X connect 16 3 11 0;
#X connect 17 0 10 0;
#X connect 17 1 5 1;
#X connect 17 2 4 0;
#X connect 18 0 15 0;
#X connect 18 1 12 0;
#X connect 18 2 3 0;
#X connect 18 3 2 0;
#X connect 18 4 0 1;
#X restore 154 91 pd fatCurve;
#N canvas 785 189 377 305 qticCurve 0;
#X msg 171 74 0;
#X obj 139 100 f;
#X obj 167 100 + 1;
#X obj 139 275 tabwrite \$0-envCurve;
#X obj 123 8 inlet;
#X msg 44 238 0;
#X obj 82 209 f;
#X obj 82 185 b;
#X obj 43 161 moses 2;
#X obj 99 89 - 1;
#X msg 33 67 102;
#X obj 24 90 sel 0;
#X obj 64 90 f;
#X obj 64 67 until;
#X obj 43 116 t f f b f;
#X obj 139 128 t f f f;
#X obj 139 241 expr pow( ($f1 / 102) \, $f2) -1;
#X text 138 223 "quartic-like" curve;
#X obj 123 31 t b b b b b;
#X msg 316 199 -0.214;
#X connect 0 0 1 1;
#X connect 1 0 15 0;
#X connect 2 0 1 1;
#X connect 4 0 18 0;
#X connect 5 0 3 0;
#X connect 6 0 16 0;
#X connect 7 0 6 0;
#X connect 8 0 5 0;
#X connect 8 1 7 0;
#X connect 9 0 12 1;
#X connect 10 0 12 0;
#X connect 11 0 13 1;
#X connect 12 0 14 0;
#X connect 13 0 12 0;
#X connect 14 0 11 0;
#X connect 14 1 6 1;
#X connect 14 2 1 0;
#X connect 14 3 9 0;
#X connect 15 0 8 0;
#X connect 15 1 3 1;
#X connect 15 2 2 0;
#X connect 16 0 3 0;
#X connect 18 0 13 0;
#X connect 18 1 10 0;
#X connect 18 2 1 0;
#X connect 18 3 0 0;
#X connect 18 4 19 0;
#X connect 19 0 16 1;
#X restore 39 113 pd qticCurve;
#X obj 155 123 t b b;
#X text 195 123 linear;
#X obj 123 280 f;
#X obj 156 200 t b f f f f;
#X obj 100 174 sel 103;
#X obj 38 39 sel 0 1;
#X connect 0 0 13 1;
#X connect 1 0 2 1;
#X connect 2 0 14 0;
#X connect 3 0 15 0;
#X connect 5 0 16 0;
#X connect 6 0 13 1;
#X connect 7 1 9 0;
#X connect 8 0 0 0;
#X connect 11 0 2 0;
#X connect 11 1 1 0;
#X connect 13 0 4 0;
#X connect 14 0 13 0;
#X connect 14 1 8 0;
#X connect 14 2 6 0;
#X connect 14 3 4 1;
#X connect 14 4 3 0;
#X connect 15 1 2 0;
#X connect 16 0 10 0;
#X connect 16 1 11 0;
#X connect 16 2 7 0;
#X restore 519 312 pd \$0-makeCurve;
#X text 60 199 else attack;
#X obj 66 219 t b b b b b;
#X text 30 473 (*) cancel any leftover delays;
#X text 1 16 arguments: level (0-1) \, attack time \, decay time (both
in mSecs.) \, sustain level (proportion of overall level 0 - 100) \,
release time \, in mSecs. \, and 'C' (curve factor);
#X text 353 16 When you send this patch a non-zero trigger it starts
the attack and decay \; if zero \, it starts the release ramp.;
#N canvas 337 137 484 594 correctSustain 0;
#X obj 204 323 f;
#X obj 252 323 + 1;
#X obj 159 384 tabread \$0-envCurve;
#X obj 28 47 inlet sustain;
#X obj 72 547 outlet correctedSustain;
#X obj 188 469 f;
#X obj 143 47 inlet curve;
#X obj 224 299 b;
#X obj 159 322 / 100;
#X obj 159 439 sel 0;
#X obj 159 264 spigot;
#X msg 160 237 0;
#X msg 192 237 1;
#X obj 316 265 spigot;
#X msg 317 238 0;
#X msg 349 238 1;
#X obj 361 324 f;
#X obj 316 385 tabread \$0-envCurve;
#X obj 345 470 f;
#X obj 383 300 b;
#X obj 316 323 / 100;
#X obj 410 324 - 1;
#X obj 159 413 <=;
#X obj 316 440 sel 1;
#X obj 361 349 t f f f;
#X obj 204 348 t f f f;
#X obj 48 160 sel 0;
#X msg 56 272 0;
#X obj 237 186 moses 1;
#X obj 316 414 <=;
#X obj 62 187 moses 100;
#X msg 84 298 100;
#X obj 155 157 sel 1;
#X obj 23 253 f;
#X obj 155 186 t b b b;
#X obj 143 103 t b f;
#X obj 155 128 f;
#X obj 28 131 t f f b;
#X text 31 22 curve table \, and outputs the index of it.;
#X obj 28 103 f 0;
#X obj 28 79 change -1;
#X obj 143 79 change -99;
#X obj 316 289 t f f;
#X obj 159 287 t f f;
#X text 31 4 Finds the input sustain value in the envelope;
#X connect 0 0 25 0;
#X connect 1 0 0 1;
#X connect 2 0 22 0;
#X connect 3 0 40 0;
#X connect 5 0 4 0;
#X connect 6 0 41 0;
#X connect 7 0 0 0;
#X connect 8 0 22 1;
#X connect 9 0 5 0;
#X connect 9 1 7 0;
#X connect 10 0 43 0;
#X connect 11 0 10 1;
#X connect 12 0 10 1;
#X connect 13 0 42 0;
#X connect 14 0 13 1;
#X connect 15 0 13 1;
#X connect 16 0 24 0;
#X connect 17 0 29 0;
#X connect 18 0 4 0;
#X connect 19 0 16 0;
#X connect 20 0 29 1;
#X connect 21 0 16 1;
#X connect 22 0 9 0;
#X connect 23 0 18 0;
#X connect 23 1 19 0;
#X connect 24 0 17 0;
#X connect 24 1 18 1;
#X connect 24 2 21 0;
#X connect 25 0 2 0;
#X connect 25 1 5 1;
#X connect 25 2 1 0;
#X connect 26 0 27 0;
#X connect 26 1 30 0;
#X connect 27 0 4 0;
#X connect 28 0 12 0;
#X connect 28 0 14 0;
#X connect 28 1 15 0;
#X connect 28 1 11 0;
#X connect 29 0 23 0;
#X connect 30 0 10 0;
#X connect 30 0 13 0;
#X connect 30 1 31 0;
#X connect 31 0 4 0;
#X connect 32 0 34 0;
#X connect 32 1 28 0;
#X connect 33 0 4 0;
#X connect 34 0 33 0;
#X connect 34 1 11 0;
#X connect 34 2 14 0;
#X connect 35 0 39 0;
#X connect 35 1 36 1;
#X connect 36 0 32 0;
#X connect 37 0 33 1;
#X connect 37 1 26 0;
#X connect 37 2 36 0;
#X connect 39 0 37 0;
#X connect 40 0 39 0;
#X connect 41 0 35 0;
#X connect 42 0 16 0;
#X connect 42 1 20 0;
#X connect 43 0 0 0;
#X connect 43 1 8 0;
#X restore 334 299 pd correctSustain;
#X obj 492 215 t f f;
#X text 386 563 - on attack: send "on" to dsp of parent voice;
#X text 395 593 send "off" to dsp of parent voice;
#X obj 365 260 f \$4;
#X obj 406 260 f \$6;
#X obj 141 219 f \$1;
#X obj 240 443 pack 0 \$3;
#X obj 240 415 f;
#X obj 379 236 t b b;
#X obj 519 284 change -99;
#X text 9 569 Phil Stone - http://pkstonemusic.com;
#X text 19 83 0 - "quartic-like" (hollow) curve \, C=-0.214;
#X connect 0 0 2 0;
#X connect 2 0 40 0;
#X connect 2 1 44 0;
#X connect 3 0 56 0;
#X connect 4 0 3 0;
#X connect 4 0 26 0;
#X connect 8 0 21 0;
#X connect 9 0 6 0;
#X connect 10 0 3 1;
#X connect 10 0 32 1;
#X connect 11 0 55 1;
#X connect 12 0 48 0;
#X connect 13 0 20 1;
#X connect 13 0 26 1;
#X connect 20 0 8 0;
#X connect 21 0 9 0;
#X connect 22 0 19 0;
#X connect 24 0 23 0;
#X connect 25 0 26 0;
#X connect 25 1 20 0;
#X connect 26 0 27 0;
#X connect 27 0 19 0;
#X connect 30 0 54 1;
#X connect 31 0 57 0;
#X connect 32 0 8 0;
#X connect 34 0 9 1;
#X connect 37 0 49 0;
#X connect 40 0 25 0;
#X connect 40 1 4 0;
#X connect 44 0 32 0;
#X connect 44 1 3 0;
#X connect 44 2 54 0;
#X connect 44 3 24 0;
#X connect 44 4 4 0;
#X connect 48 0 56 1;
#X connect 49 0 48 1;
#X connect 49 1 58 0;
#X connect 52 0 48 0;
#X connect 53 0 48 1;
#X connect 53 0 58 0;
#X connect 54 0 35 0;
#X connect 55 0 8 0;
#X connect 56 0 55 0;
#X connect 57 0 52 0;
#X connect 57 1 53 0;
#X connect 58 0 42 0;
