#N canvas 551 22 722 687 10;
#X declare -lib cyclone;
#X obj 263 480 cnv 15 184 114 empty empty empty 20 12 0 14 -228992
-66577 0;
#X obj 197 281 cnv 15 254 194 empty empty empty 20 12 0 14 -228992
-66577 0;
#X obj 14 446 cnv 15 164 134 empty empty empty 20 12 0 14 -228992 -66577
0;
#X obj 12 124 cnv 15 164 200 empty empty empty 20 12 0 14 -228992 -66577
0;
#X obj 13 330 cnv 15 164 110 empty empty empty 20 12 0 14 -228992 -66577
0;
#X obj 468 338 cnv 15 236 170 empty empty empty 20 12 0 14 -228992
-66577 0;
#X obj 20 380 +~;
#X obj 323 603 *~;
#X obj 340 1 inlet;
#X obj 542 369 r \$0-atk;
#X obj 639 430 r \$0-rel;
#X obj 350 109 s \$0-atk;
#X obj 84 451 r \$0-ffrq;
#X obj 45 517 *~ 5000;
#X obj 101 517 r \$0-fltq;
#X obj 477 374 f;
#X obj 77 382 r \$0-cwave;
#X obj 492 346 r \$0-atklvl;
#X obj 332 521 r \$0-panPos;
#N canvas 46 80 381 312 envVcf 0;
#X obj 36 22 inlet~ sig;
#X obj 196 22 inlet Q;
#X obj 113 22 inlet~ freq;
#X obj 37 260 outlet~;
#N canvas 437 31 319 208 svfWrapper 0;
#X obj 19 36 inlet~ sig;
#X obj 89 36 inlet~ freq;
#X obj 171 36 inlet Q;
#X obj 171 124 switch~;
#X obj 171 82 sel 0;
#X msg 171 102 0;
#X msg 201 102 1;
#X obj 41 157 outlet~;
#X text 23 9 This switches itself off when Q = 0;
#X obj 234 37 loadbang;
#X obj 98 59 loadbang;
#X msg 98 81 0.1;
#X msg 234 58 0.1;
#X obj 41 129 svf~ low;
#X obj 134 162 import cyclone;
#X connect 0 0 13 0;
#X connect 1 0 13 1;
#X connect 2 0 4 0;
#X connect 2 0 13 2;
#X connect 4 0 5 0;
#X connect 4 1 6 0;
#X connect 5 0 3 0;
#X connect 6 0 3 0;
#X connect 9 0 12 0;
#X connect 10 0 11 0;
#X connect 11 0 13 2;
#X connect 12 0 4 0;
#X connect 13 0 7 0;
#X restore 95 224 pd svfWrapper;
#X obj 37 199 *~;
#X obj 206 72 sel 0;
#X obj 95 199 *~;
#X text 192 0 Q = 0 switches filter off;
#X obj 257 22 loadbang;
#X msg 257 45 0;
#X msg 206 112 1;
#X msg 236 112 0;
#X msg 271 112 0;
#X msg 301 112 1;
#X obj 209 220 line;
#X obj 209 191 pack 0 50;
#X obj 273 190 pack 0 50;
#X obj 273 220 line;
#X connect 0 0 5 0;
#X connect 0 0 7 0;
#X connect 1 0 4 2;
#X connect 1 0 6 0;
#X connect 2 0 4 1;
#X connect 4 0 3 0;
#X connect 5 0 3 0;
#X connect 6 0 11 0;
#X connect 6 0 12 0;
#X connect 6 1 14 0;
#X connect 6 1 13 0;
#X connect 7 0 4 0;
#X connect 9 0 10 0;
#X connect 10 0 6 0;
#X connect 11 0 5 1;
#X connect 12 0 7 1;
#X connect 13 0 5 1;
#X connect 14 0 7 1;
#X connect 16 0 15 0;
#X connect 17 0 18 0;
#X restore 20 543 pd envVcf;
#X obj 236 188 t b f;
#X obj 284 655 outlet~;
#X obj 368 655 outlet~;
#X obj 171 1 inlet;
#X obj 255 40 s \$0-atklvl;
#X obj 171 26 unpack f f;
#X obj 477 397 t f f;
#X obj 350 171 s \$0-rel;
#X obj 350 129 s \$0-dec;
#X obj 574 390 r \$0-dec;
#X obj 350 150 s \$0-sus;
#X obj 607 410 r \$0-sus;
#X obj 340 52 list;
#X obj 76 216 r \$0-mwave;
#X obj 649 451 r \$0-exp;
#X text 432 11 This is a "polypoly-compatible" voice.;
#X text 26 448 Enveloped;
#X text 26 462 Filter;
#X text 105 406 Carrier;
#X text 610 350 Amplitude;
#X text 611 364 Envelope;
#X obj 219 286 r \$0-atklvl;
#X obj 204 364 t f f;
#X text 398 295 Envelope;
#X text 398 281 Filter;
#X obj 270 351 r \$0-fltAtk;
#X obj 302 370 r \$0-fltDec;
#X obj 335 389 r \$0-fltSus;
#X obj 367 408 r \$0-fltRel;
#X obj 378 427 r \$0-fltExp;
#X obj 351 192 s \$0-exp;
#X obj 415 109 s \$0-fltAtk;
#X obj 415 130 s \$0-fltDec;
#X obj 415 151 s \$0-fltSus;
#X obj 415 172 s \$0-fltRel;
#X obj 415 193 s \$0-fltExp;
#X text 241 81 pitchbend;
#X text 241 69 global;
#X text 215 262 frequency;
#X obj 19 147 r \$0-modfreq;
#X obj 102 147 r \$0-ratio;
#X text 221 249 carrier;
#X obj 46 351 phasor~;
#X obj 19 208 phasor~;
#X obj 40 268 r \$0-modamp;
#X obj 19 292 *~ 1;
#N canvas 661 403 400 225 calcModFreq 0;
#X obj 64 94 == 0;
#X obj 126 62 spigot 0;
#X obj 19 117 spigot 1;
#X obj 147 136 spigot 0;
#X obj 171 7 inlet ratioOn;
#X obj 267 7 inlet carrierFreq;
#X text 158 153 freq. is ratio of carrier;
#X text 30 134 freq. is 'free';
#X obj 146 111 *;
#X obj 20 200 outlet;
#X obj 18 7 inlet modFreqFrac;
#X obj 126 85 t b f;
#X connect 0 0 2 1;
#X connect 1 0 11 0;
#X connect 2 0 9 0;
#X connect 3 0 9 0;
#X connect 4 0 1 1;
#X connect 4 0 0 0;
#X connect 4 0 3 1;
#X connect 5 0 8 0;
#X connect 8 0 3 0;
#X connect 10 0 1 0;
#X connect 10 0 2 0;
#X connect 11 0 8 0;
#X connect 11 1 8 1;
#X restore 19 178 pd calcModFreq;
#X obj 625 557 switch~;
#X obj 284 630 *~;
#X obj 368 628 *~;
#X obj 317 541 f;
#X obj 276 549 b;
#X obj 184 115 t b b f;
#X obj 276 501 r \$0-atklvl;
#X obj 276 525 sel 0;
#X text 386 498 Panning;
#X text 53 297 Modulator;
#X obj 224 209 f;
#X obj 224 235 * 1;
#X obj 252 117 r \$0-detune;
#X text 269 482 (only changes pan on attack);
#X msg 477 311 0;
#N canvas 0 22 328 338 pan 0;
#X obj 105 27 inlet;
#X text 160 277 right control;
#X text 57 277 left control;
#X obj 178 26 inlet;
#X text 97 9 pos 0 - 1;
#X text 176 8 transition rate;
#X obj 82 165 pack 0.5 600;
#X obj 172 165 pack 0.5 600;
#X obj 30 25 loadbang;
#X obj 30 52 t b b;
#X obj 82 200 vline~;
#X obj 82 251 outlet~;
#X obj 172 251 outlet~;
#X obj 172 200 vline~;
#X obj 82 140 -;
#X obj 82 114 1;
#X obj 105 52 t b f f;
#X connect 0 0 16 0;
#X connect 3 0 6 1;
#X connect 3 0 7 1;
#X connect 6 0 10 0;
#X connect 7 0 13 0;
#X connect 8 0 9 0;
#X connect 9 0 6 0;
#X connect 9 1 7 0;
#X connect 10 0 11 0;
#X connect 13 0 12 0;
#X connect 14 0 6 0;
#X connect 15 0 14 0;
#X connect 16 0 15 0;
#X connect 16 1 14 1;
#X connect 16 2 7 0;
#X restore 317 568 pd pan;
#N canvas 185 100 256 261 pitchMod 0;
#X obj 29 221 outlet ratio;
#X obj 29 198 pow;
#X obj 29 151 t b f;
#X obj 29 176 2;
#X obj 29 129 / 1200;
#X obj 30 36 inlet pbend;
#X obj 107 36 inlet detune;
#X text 33 14 both of these are in cents;
#X obj 68 60 t b f;
#X obj 30 83 f 0;
#X obj 30 107 + 0;
#X connect 1 0 0 0;
#X connect 2 0 3 0;
#X connect 2 1 1 1;
#X connect 3 0 1 0;
#X connect 4 0 2 0;
#X connect 5 0 9 0;
#X connect 6 0 8 0;
#X connect 8 0 9 0;
#X connect 8 1 10 1;
#X connect 9 0 10 0;
#X connect 10 0 4 0;
#X restore 236 139 pd pitchMod;
#X text 471 270 global release;
#X obj 205 451 multicurveadsr 0.9 10 10 100 10 0;
#X obj 20 405 wavetable~;
#X text 456 633 Phil Stone - http://pkstonemusic.com;
#X obj 586 512 loadbang;
#X msg 586 532 0;
#X obj 350 545 r \$0-panRate;
#X obj 340 30 spigot;
#X obj 311 2 > 0;
#X obj 255 1 t f b f;
#X obj 505 194 s \$0-gain;
#X obj 479 576 *~;
#N canvas 0 22 215 201 setLevel 0;
#X obj 19 13 inlet;
#X obj 42 173 outlet;
#X obj 93 13 inlet always1;
#X obj 93 40 sel 1;
#X msg 92 108 1;
#X obj 19 130 spigot;
#X msg 60 108 1;
#X msg 31 108 0;
#X obj 82 66 t b b;
#X obj 120 66 b;
#X connect 0 0 5 0;
#X connect 2 0 3 0;
#X connect 3 0 8 0;
#X connect 3 1 9 0;
#X connect 4 0 1 0;
#X connect 5 0 1 0;
#X connect 6 0 5 1;
#X connect 7 0 5 1;
#X connect 8 0 4 0;
#X connect 8 1 7 0;
#X connect 9 0 6 0;
#X restore 219 311 pd setLevel;
#X obj 478 483 multicurveadsr 0.9 10 10 100 10 0;
#X obj 204 338 f;
#X obj 19 237 wavetable~;
#X obj 415 214 s \$0-fampscale;
#X obj 300 286 r \$0-fampscale;
#X obj 300 309 == 0;
#X obj 494 533 pack f 50;
#X obj 494 554 line~;
#X obj 494 511 r \$0-gain;
#X obj 236 97 r \$3-GLOBAL-pbend;
#N canvas 0 22 324 311 globals 1;
#X obj 10 234 s \$0-ratio;
#X obj 10 211 r \$3-GLOBAL-ratio;
#X obj 9 133 s \$0-modamp;
#X obj 9 183 s \$0-modfreq;
#X obj 8 30 s \$0-ffrq;
#X obj 8 81 s \$0-fltq;
#X obj 146 131 s \$0-detune;
#X obj 146 108 r \$3-GLOBAL-detune;
#X obj 146 8 r \$3-GLOBAL-panpos;
#X obj 146 58 r \$3-GLOBAL-panrate;
#X obj 146 81 s \$0-panRate;
#X obj 146 31 s \$0-panPos;
#X obj 8 7 r \$3-GLOBAL-filtfreq;
#X obj 8 58 r \$3-GLOBAL-fltq;
#X obj 9 110 r \$3-GLOBAL-modamp;
#X obj 9 160 r \$3-GLOBAL-modfreq;
#X obj 146 154 r \$3-GLOBAL-gain;
#X obj 146 177 s \$0-gain;
#X obj 146 205 r \$3-GLOBAL-mwave;
#X obj 146 228 s \$0-mwave;
#X obj 147 279 s \$0-cwave;
#X obj 147 256 r \$3-GLOBAL-cwave;
#X connect 1 0 0 0;
#X connect 7 0 6 0;
#X connect 8 0 11 0;
#X connect 9 0 10 0;
#X connect 12 0 4 0;
#X connect 13 0 5 0;
#X connect 14 0 2 0;
#X connect 15 0 3 0;
#X connect 16 0 17 0;
#X connect 18 0 19 0;
#X connect 21 0 20 0;
#X restore 607 54 pd globals;
#X obj 505 110 s \$0-cwave;
#X obj 505 131 s \$0-mwave;
#X obj 505 173 s \$0-panRate;
#X obj 505 152 s \$0-panPos;
#X obj 589 109 s \$0-ffrq;
#X obj 589 130 s \$0-fltq;
#X obj 589 172 s \$0-modfreq;
#X obj 589 193 s \$0-ratio;
#X obj 589 214 s \$0-detune;
#X obj 589 151 s \$0-modamp;
#X obj 477 288 r \$3-GLOBAL-alloff;
#X text 383 55 only change these params. on attack;
#X obj 340 75 unpack f f f f f f f f f f f f f f f f f f f f f f;
#X connect 6 0 86 0;
#X connect 7 0 68 0;
#X connect 7 0 69 0;
#X connect 8 0 32 1;
#X connect 9 0 97 2;
#X connect 10 0 97 5;
#X connect 12 0 13 1;
#X connect 13 0 19 1;
#X connect 14 0 19 2;
#X connect 15 0 26 0;
#X connect 16 0 86 1;
#X connect 17 0 15 1;
#X connect 18 0 70 1;
#X connect 19 0 7 0;
#X connect 20 0 77 0;
#X connect 20 1 78 1;
#X connect 23 0 25 0;
#X connect 25 0 72 0;
#X connect 25 1 93 0;
#X connect 26 0 97 0;
#X connect 26 1 97 1;
#X connect 29 0 97 3;
#X connect 31 0 97 4;
#X connect 32 0 120 0;
#X connect 33 0 99 1;
#X connect 34 0 97 6;
#X connect 41 0 96 0;
#X connect 42 0 85 0;
#X connect 42 1 85 1;
#X connect 45 0 85 2;
#X connect 46 0 85 3;
#X connect 47 0 85 4;
#X connect 48 0 85 5;
#X connect 49 0 85 6;
#X connect 59 0 66 0;
#X connect 60 0 66 1;
#X connect 62 0 6 0;
#X connect 63 0 99 0;
#X connect 64 0 65 1;
#X connect 65 0 6 1;
#X connect 66 0 63 0;
#X connect 68 0 21 0;
#X connect 69 0 22 0;
#X connect 70 0 82 0;
#X connect 71 0 70 0;
#X connect 72 0 15 0;
#X connect 72 1 98 0;
#X connect 72 2 77 0;
#X connect 73 0 74 0;
#X connect 74 1 71 0;
#X connect 77 0 78 0;
#X connect 78 0 62 0;
#X connect 78 0 66 2;
#X connect 79 0 83 1;
#X connect 81 0 15 0;
#X connect 81 0 42 0;
#X connect 82 0 68 1;
#X connect 82 1 69 1;
#X connect 83 0 20 0;
#X connect 85 0 13 0;
#X connect 86 0 19 0;
#X connect 88 0 89 0;
#X connect 89 0 67 0;
#X connect 90 0 82 1;
#X connect 91 0 32 0;
#X connect 92 0 91 1;
#X connect 93 0 24 0;
#X connect 93 1 91 0;
#X connect 93 2 92 0;
#X connect 95 0 7 1;
#X connect 96 0 98 1;
#X connect 97 0 95 0;
#X connect 97 1 67 0;
#X connect 98 0 42 0;
#X connect 99 0 65 0;
#X connect 101 0 102 0;
#X connect 102 0 96 1;
#X connect 103 0 104 0;
#X connect 104 0 95 1;
#X connect 105 0 103 0;
#X connect 106 0 83 0;
#X connect 118 0 81 0;
#X connect 120 0 11 0;
#X connect 120 1 28 0;
#X connect 120 2 30 0;
#X connect 120 3 27 0;
#X connect 120 4 50 0;
#X connect 120 5 51 0;
#X connect 120 6 52 0;
#X connect 120 7 53 0;
#X connect 120 8 54 0;
#X connect 120 9 55 0;
#X connect 120 10 100 0;
#X connect 120 11 108 0;
#X connect 120 12 109 0;
#X connect 120 13 111 0;
#X connect 120 14 110 0;
#X connect 120 15 94 0;
#X connect 120 16 112 0;
#X connect 120 17 113 0;
#X connect 120 18 117 0;
#X connect 120 19 114 0;
#X connect 120 20 115 0;
#X connect 120 21 116 0;
#X coords 0 0 1 1 85 70 0;
