#N canvas 899 22 373 298 10;
#X obj 40 131 *~ 8192;
#X obj 40 38 inlet~;
#X obj 40 256 outlet~;
#X obj 191 66 sel 0 1 2 3 4 5;
#X obj 190 36 inlet;
#X text 188 15 selector;
#X text 38 16 signal;
#X text 53 109 table size;
#X msg 191 200 set te_sine;
#X msg 263 90 set te_noise;
#X msg 250 111 set te_triangle;
#X msg 236 132 set te_pulse;
#X msg 222 154 set te_ramp;
#X msg 207 177 set te_square;
#X obj 40 231 tabread~ te_sine;
#X connect 0 0 14 0;
#X connect 1 0 0 0;
#X connect 3 0 8 0;
#X connect 3 1 13 0;
#X connect 3 2 12 0;
#X connect 3 3 11 0;
#X connect 3 4 10 0;
#X connect 3 5 9 0;
#X connect 4 0 3 0;
#X connect 8 0 14 0;
#X connect 9 0 14 0;
#X connect 10 0 14 0;
#X connect 11 0 14 0;
#X connect 12 0 14 0;
#X connect 13 0 14 0;
#X connect 14 0 2 0;
