#N canvas 0 30 1278 683 10;
#X obj 23 50 OSCroute /1 /2 /3 /4;
#X obj 23 83 s \$0-page-1;
#X obj 53 100 s \$0-page-2;
#X obj 81 117 s \$0-page-3;
#X obj 111 134 s \$0-page-4;
#N canvas 0 30 1280 684 page-1 0;
#X obj 21 215 vsl 30 128 0 240 0 0 empty empty empty 0 -9 0 10 -257985
-1 -1 6114 1;
#X obj 59 215 vsl 30 128 0 127 0 0 empty empty empty 0 -9 0 10 -4032
-1 -1 12700 1;
#X obj 21 353 tgl 30 0 empty empty empty 17 7 0 10 -257985 -1 -1 1
1;
#X obj 22 29 OSCroute /fader1 /fader2 /toggle1 /toggle2 /push1 /push2
/push3 /push4 /push5 /push6 /push7 /push8 /push9 /push10 /push11 /push12
;
#X obj 41 101 * 127;
#X obj 60 353 tgl 30 0 empty empty empty 17 7 0 10 -4032 -1 -1 0 1
;
#X obj 103 272 tgl 50 0 empty empty empty 17 7 0 10 -4034 -1 -1 0 1
;
#X obj 103 212 tgl 50 0 empty empty empty 17 7 0 10 -4034 -1 -1 0 1
;
#X obj 103 333 tgl 50 0 empty empty empty 17 7 0 10 -4034 -1 -1 0 1
;
#X obj 169 212 tgl 50 0 empty empty empty 17 7 0 10 -159808 -1 -1 0
1;
#X obj 169 271 tgl 50 0 empty empty empty 17 7 0 10 -159808 -1 -1 0
1;
#X obj 169 332 tgl 50 0 empty empty empty 17 7 0 10 -159808 -1 -1 0
1;
#X obj 229 212 tgl 50 0 empty empty empty 17 7 0 10 -159808 -1 -1 0
1;
#X obj 229 272 tgl 50 0 empty empty empty 17 7 0 10 -159808 -1 -1 0
1;
#X obj 229 332 tgl 50 0 empty empty empty 17 7 0 10 -159808 -1 -1 0
1;
#X obj 289 212 tgl 50 0 pad3 empty empty 17 7 0 10 -159808 -1 -1 0
1;
#X obj 289 272 tgl 50 0 empty empty empty 17 7 0 10 -159808 -1 -1 0
1;
#X obj 289 332 tgl 50 0 empty empty empty 17 7 0 10 -159808 -1 -1 0
1;
#X obj 22 79 * 200;
#X msg 414 140 bang;
#X msg -11 492 set \$1-On/Off;
#X msg 297 468 set \$1-pad1;
#X msg 462 469 set \$1-pad3;
#X msg 378 469 set \$1-pad2;
#X msg 290 540 set \$1-pad4;
#X msg 371 541 set \$1-pad5;
#X msg 455 541 set \$1-pad6;
#X msg 301 601 set \$1-pad7;
#X msg 376 605 set \$1-pad8;
#X msg 460 605 set \$1-pad9;
#X msg 590 314 \$1;
#X floatatom 658 364 5 0 0 0 - - -;
#X msg -8 566 set \$1-mute;
#X obj 121 560 send13 vol;
#X msg 122 603 set \$1-vol;
#X obj 590 279 r \$0-instrumentID;
#X obj 22 6 r \$0-page-1;
#X obj 98 449 send13 tempo;
#X msg 110 482 set \$1-tempo;
#X obj 459 243 s13 cPresets;
#X msg 454 213 set \$1-cPresets;
#X obj -15 452 send13 On/Off;
#X obj -10 526 send13 mute;
#X obj 304 500 send13 pad1;
#X obj 309 572 send13 pad4;
#X obj 312 628 send13 pad7;
#X obj 395 627 send13 pad8;
#X obj 392 569 send13 pad5;
#X obj 386 499 send13 pad2;
#X obj 467 499 send13 pad3;
#X obj 473 570 send13 pad6;
#X obj 476 627 send13 pad9;
#X connect 0 0 37 0;
#X connect 1 0 33 0;
#X connect 2 0 41 0;
#X connect 3 0 18 0;
#X connect 3 1 4 0;
#X connect 3 2 2 0;
#X connect 3 3 5 0;
#X connect 3 4 11 0;
#X connect 3 5 14 0;
#X connect 3 6 17 0;
#X connect 3 7 10 0;
#X connect 3 8 13 0;
#X connect 3 9 16 0;
#X connect 3 10 9 0;
#X connect 3 11 12 0;
#X connect 3 12 15 0;
#X connect 3 13 8 0;
#X connect 3 14 6 0;
#X connect 3 15 7 0;
#X connect 4 0 1 0;
#X connect 5 0 42 0;
#X connect 7 0 39 0;
#X connect 9 0 43 0;
#X connect 10 0 19 0;
#X connect 10 0 44 0;
#X connect 11 0 45 0;
#X connect 12 0 19 0;
#X connect 12 0 48 0;
#X connect 13 0 19 0;
#X connect 13 0 47 0;
#X connect 14 0 46 0;
#X connect 15 0 19 0;
#X connect 15 0 49 0;
#X connect 16 0 19 0;
#X connect 16 0 50 0;
#X connect 17 0 51 0;
#X connect 18 0 0 0;
#X connect 20 0 41 0;
#X connect 21 0 43 0;
#X connect 22 0 49 0;
#X connect 23 0 48 0;
#X connect 24 0 44 0;
#X connect 25 0 47 0;
#X connect 26 0 50 0;
#X connect 27 0 45 0;
#X connect 28 0 46 0;
#X connect 29 0 51 0;
#X connect 30 0 20 0;
#X connect 30 0 21 0;
#X connect 30 0 23 0;
#X connect 30 0 22 0;
#X connect 30 0 26 0;
#X connect 30 0 25 0;
#X connect 30 0 24 0;
#X connect 30 0 29 0;
#X connect 30 0 28 0;
#X connect 30 0 27 0;
#X connect 30 0 31 0;
#X connect 30 0 32 0;
#X connect 30 0 34 0;
#X connect 30 0 38 0;
#X connect 30 0 40 0;
#X connect 32 0 42 0;
#X connect 34 0 33 0;
#X connect 35 0 30 0;
#X connect 36 0 3 0;
#X connect 38 0 37 0;
#X connect 40 0 39 0;
#X coords 0 -1 1 1 340 200 2 10 200;
#X restore 32 153 pd page-1;
#N canvas 0 30 1257 662 page-2 0;
#X obj -492 -97 OSCroute /multitoggle /multifader;
#X obj 125 -102 OSCroute /1 /2 /3 /4 /5 /6 /7 /8 /9 /10 /11 /12 /13
/14 /15 /16;
#X obj -502 -62 OSCroute /1 /2 /3 /4 /5 /6;
#X obj 20 440 vsl 15 40 0 100 0 0 empty empty empty 0 -9 0 10 -4034
-1 -1 0 1;
#X obj 39 439 vsl 15 40 0 100 0 0 empty empty empty 0 -9 0 10 -4034
-1 -1 0 1;
#X obj 60 439 vsl 15 40 0 100 0 0 empty empty empty 0 -9 0 10 -4034
-1 -1 0 1;
#X obj 80 440 vsl 15 40 0 100 0 0 empty empty empty 0 -9 0 10 -4034
-1 -1 0 1;
#X obj 100 440 vsl 15 40 0 100 0 0 empty empty empty 0 -9 0 10 -4034
-1 -1 0 1;
#X obj 120 440 vsl 15 40 0 100 0 0 empty empty empty 0 -9 0 10 -4034
-1 -1 0 1;
#X obj 140 440 vsl 15 40 0 100 0 0 empty empty empty 0 -9 0 10 -4034
-1 -1 0 1;
#X obj 160 440 vsl 15 40 0 100 0 0 empty empty empty 0 -9 0 10 -4034
-1 -1 0 1;
#X obj 180 440 vsl 15 40 0 100 0 0 empty empty empty 0 -9 0 10 -4034
-1 -1 0 1;
#X obj 200 440 vsl 15 40 0 100 0 0 empty empty empty 0 -9 0 10 -4034
-1 -1 0 1;
#X obj 220 440 vsl 15 40 0 127 0 0 empty empty empty 0 -9 0 10 -4034
-1 -1 0 1;
#X obj 240 440 vsl 15 40 0 100 0 0 empty empty empty 0 -9 0 10 -4034
-1 -1 0 1;
#X obj 260 440 vsl 15 40 0 100 0 0 empty empty empty 0 -9 0 10 -4034
-1 -1 0 1;
#X obj 280 440 vsl 15 40 0 100 0 0 empty empty empty 0 -9 0 10 -4034
-1 -1 0 1;
#X obj 300 440 vsl 15 40 0 100 0 0 empty empty empty 0 -9 0 10 -4034
-1 -1 0 1;
#X obj 320 440 vsl 15 40 0 100 0 0 empty empty empty 0 -9 0 10 -4034
-1 -1 0 1;
#X obj 482 479 * 127;
#X obj -507 -143 r \$0-page-2;
#X obj 524 479 * 127;
#X obj 544 459 * 127;
#X obj 564 479 * 127;
#X obj 584 459 * 127;
#X obj 604 479 * 127;
#X obj 624 459 * 127;
#X obj 644 479 * 127;
#X obj 664 459 * 127;
#X obj 684 479 * 127;
#X obj 704 459 * 127;
#X obj 724 479 * 127;
#X obj 744 459 * 127;
#X obj 764 479 * 127;
#X obj 784 459 * 127;
#X obj 804 479 * 127;
#X obj 824 459 * 127;
#X obj -145 552 OSCroute /1 /2 /3 /4 /5 /6 /7 /8 /9 /10 /11 /12 /13
/14 /15 /16;
#X obj -147 587 OSCroute /1 /2 /3 /4 /5 /6 /7 /8 /9 /10 /11 /12 /13
/14 /15 /16;
#X obj -151 665 OSCroute /1 /2 /3 /4 /5 /6 /7 /8 /9 /10 /11 /12 /13
/14 /15 /16;
#X obj -153 624 OSCroute /1 /2 /3 /4 /5 /6 /7 /8 /9 /10 /11 /12 /13
/14 /15 /16;
#X obj -151 702 OSCroute /1 /2 /3 /4 /5 /6 /7 /8 /9 /10 /11 /12 /13
/14 /15 /16;
#X obj 20 415 tgl 15 0 \$1-f1 empty empty 17 7 0 10 -4032 -1 -1 0 1
;
#X obj 20 395 tgl 15 0 \$1-e1 empty empty 17 7 0 10 -4032 -1 -1 0 1
;
#X obj 20 375 tgl 15 0 \$1-d1 empty empty 17 7 0 10 -4032 -1 -1 0 1
;
#X obj 20 355 tgl 15 0 \$1-c1 empty empty 17 7 0 10 -4032 -1 -1 0 1
;
#X obj 20 335 tgl 15 0 \$1-b1 empty empty 17 7 0 10 -4032 -1 -1 0 1
;
#X obj 20 315 tgl 15 0 \$1-a1 empty empty 17 7 0 10 -4032 -1 -1 0 1
;
#X obj 40 415 tgl 15 0 \$1-f2 empty empty 17 7 0 10 -4032 -1 -1 0 1
;
#X obj 40 395 tgl 15 0 \$1-e2 empty empty 17 7 0 10 -4032 -1 -1 0 1
;
#X obj 40 375 tgl 15 0 \$1-d2 empty empty 17 7 0 10 -4032 -1 -1 0 1
;
#X obj 40 355 tgl 15 0 \$1-c2 empty empty 17 7 0 10 -4032 -1 -1 0 1
;
#X obj 40 335 tgl 15 0 \$1-b2 empty empty 17 7 0 10 -4032 -1 -1 0 1
;
#X obj 40 315 tgl 15 0 \$1-a2 empty empty 17 7 0 10 -4032 -1 -1 1 1
;
#X obj 60 415 tgl 15 0 \$1-f3 empty empty 17 7 0 10 -4032 -1 -1 0 1
;
#X obj 60 395 tgl 15 0 \$1-e3 empty empty 17 7 0 10 -4032 -1 -1 0 1
;
#X obj 60 375 tgl 15 0 \$1-d3 empty empty 17 7 0 10 -4032 -1 -1 0 1
;
#X obj 60 355 tgl 15 0 \$1-c3 empty empty 17 7 0 10 -4032 -1 -1 0 1
;
#X obj 60 335 tgl 15 0 \$1-b3 empty empty 17 7 0 10 -4032 -1 -1 0 1
;
#X obj 60 315 tgl 15 0 \$1-a3 empty empty 17 7 0 10 -4032 -1 -1 1 1
;
#X obj 80 415 tgl 15 0 \$1-f4 empty empty 17 7 0 10 -4032 -1 -1 0 1
;
#X obj 80 395 tgl 15 0 \$1-e4 empty empty 17 7 0 10 -4032 -1 -1 0 1
;
#X obj 80 375 tgl 15 0 \$1-d4 empty empty 17 7 0 10 -4032 -1 -1 0 1
;
#X obj 80 355 tgl 15 0 \$1-c4 empty empty 17 7 0 10 -4032 -1 -1 0 1
;
#X obj 80 335 tgl 15 0 \$1-b4 empty empty 17 7 0 10 -4032 -1 -1 0 1
;
#X obj 80 315 tgl 15 0 \$1-a4 empty empty 17 7 0 10 -4032 -1 -1 0 1
;
#X obj 100 415 tgl 15 0 \$1-f5 empty empty 17 7 0 10 -4032 -1 -1 0
1;
#X obj 100 395 tgl 15 0 \$1-e5 empty empty 17 7 0 10 -4032 -1 -1 0
1;
#X obj 100 375 tgl 15 0 \$1-d5 empty empty 17 7 0 10 -4032 -1 -1 0
1;
#X obj 100 355 tgl 15 0 \$1-c5 empty empty 17 7 0 10 -4032 -1 -1 0
1;
#X obj 100 335 tgl 15 0 \$1-b5 empty empty 17 7 0 10 -4032 -1 -1 0
1;
#X obj 100 315 tgl 15 0 \$1-a5 empty empty 17 7 0 10 -4032 -1 -1 1
1;
#X obj 120 415 tgl 15 0 \$1-f6 empty empty 17 7 0 10 -4032 -1 -1 0
1;
#X obj 120 395 tgl 15 0 \$1-e6 empty empty 17 7 0 10 -4032 -1 -1 0
1;
#X obj 120 375 tgl 15 0 \$1-d6 empty empty 17 7 0 10 -4032 -1 -1 0
1;
#X obj 120 355 tgl 15 0 \$1-c6 empty empty 17 7 0 10 -4032 -1 -1 0
1;
#X obj 120 335 tgl 15 0 \$1-b6 empty empty 17 7 0 10 -4032 -1 -1 1
1;
#X obj 120 315 tgl 15 0 \$1-a6 empty empty 17 7 0 10 -4032 -1 -1 0
1;
#X obj 140 415 tgl 15 0 \$1-f7 empty empty 17 7 0 10 -4032 -1 -1 0
1;
#X obj 140 395 tgl 15 0 \$1-e7 empty empty 17 7 0 10 -4032 -1 -1 0
1;
#X obj 140 375 tgl 15 0 \$1-d7 empty empty 17 7 0 10 -4032 -1 -1 0
1;
#X obj 140 355 tgl 15 0 \$1-c7 empty empty 17 7 0 10 -4032 -1 -1 0
1;
#X obj 140 335 tgl 15 0 \$1-b7 empty empty 17 7 0 10 -4032 -1 -1 1
1;
#X obj 140 315 tgl 15 0 \$1-a7 empty empty 17 7 0 10 -4032 -1 -1 1
1;
#X obj 160 415 tgl 15 0 \$1-f8 empty empty 17 7 0 10 -4032 -1 -1 0
1;
#X obj 160 395 tgl 15 0 \$1-e8 empty empty 17 7 0 10 -4032 -1 -1 0
1;
#X obj 160 375 tgl 15 0 \$1-d8 empty empty 17 7 0 10 -4032 -1 -1 0
1;
#X obj 160 355 tgl 15 0 \$1-c8 empty empty 17 7 0 10 -4032 -1 -1 0
1;
#X obj 160 335 tgl 15 0 \$1-b8 empty empty 17 7 0 10 -4032 -1 -1 0
1;
#X obj 159 315 tgl 15 0 \$1-a8 empty empty 17 7 0 10 -4032 -1 -1 0
1;
#X obj 180 415 tgl 15 0 \$1-f9 empty empty 17 7 0 10 -4032 -1 -1 0
1;
#X obj 180 395 tgl 15 0 \$1-e9 empty empty 17 7 0 10 -4032 -1 -1 0
1;
#X obj 180 375 tgl 15 0 \$1-d9 empty empty 17 7 0 10 -4032 -1 -1 0
1;
#X obj 180 355 tgl 15 0 \$1-c9 empty empty 17 7 0 10 -4032 -1 -1 0
1;
#X obj 180 335 tgl 15 0 \$1-b9 empty empty 17 7 0 10 -4032 -1 -1 0
1;
#X obj 180 315 tgl 15 0 \$1-a9 empty empty 17 7 0 10 -4032 -1 -1 1
1;
#X obj 200 415 tgl 15 0 \$1-f10 empty empty 17 7 0 10 -4032 -1 -1 0
1;
#X obj 200 395 tgl 15 0 \$1-e10 empty empty 17 7 0 10 -4032 -1 -1 0
1;
#X obj 200 375 tgl 15 0 \$1-d10 empty empty 17 7 0 10 -4032 -1 -1 0
1;
#X obj 200 355 tgl 15 0 \$1-c10 empty empty 17 7 0 10 -4032 -1 -1 0
1;
#X obj 200 335 tgl 15 0 \$1-b10 empty empty 17 7 0 10 -4032 -1 -1 0
1;
#X obj 200 315 tgl 15 0 \$1-a10 empty empty 17 7 0 10 -4032 -1 -1 1
1;
#X obj 220 415 tgl 15 0 \$1-f11 empty empty 17 7 0 10 -4032 -1 -1 0
1;
#X obj 220 395 tgl 15 0 \$1-e11 empty empty 17 7 0 10 -4032 -1 -1 0
1;
#X obj 220 375 tgl 15 0 \$1-d11 empty empty 17 7 0 10 -4032 -1 -1 0
1;
#X obj 220 355 tgl 15 0 \$1-c11 empty empty 17 7 0 10 -4032 -1 -1 0
1;
#X obj 220 335 tgl 15 0 \$1-b11 empty empty 17 7 0 10 -4032 -1 -1 0
1;
#X obj 220 315 tgl 15 0 \$1-a11 empty empty 17 7 0 10 -4032 -1 -1 1
1;
#X obj 240 415 tgl 15 0 \$1-f12 empty empty 17 7 0 10 -4032 -1 -1 0
1;
#X obj 240 395 tgl 15 0 \$1-e12 empty empty 17 7 0 10 -4032 -1 -1 0
1;
#X obj 240 375 tgl 15 0 \$1-d12 empty empty 17 7 0 10 -4032 -1 -1 0
1;
#X obj 240 355 tgl 15 0 \$1-c12 empty empty 17 7 0 10 -4032 -1 -1 0
1;
#X obj 240 335 tgl 15 0 \$1-b12 empty empty 17 7 0 10 -4032 -1 -1 0
1;
#X obj 240 315 tgl 15 0 \$1-a12 empty empty 17 7 0 10 -4032 -1 -1 1
1;
#X obj 260 415 tgl 15 0 \$1-f13 empty empty 17 7 0 10 -4032 -1 -1 0
1;
#X obj 260 395 tgl 15 0 \$1-e13 empty empty 17 7 0 10 -4032 -1 -1 0
1;
#X obj 260 375 tgl 15 0 \$1-d13 empty empty 17 7 0 10 -4032 -1 -1 0
1;
#X obj 260 355 tgl 15 0 \$1-c13 empty empty 17 7 0 10 -4032 -1 -1 0
1;
#X obj 260 335 tgl 15 0 \$1-b13 empty empty 17 7 0 10 -4032 -1 -1 0
1;
#X obj 260 315 tgl 15 0 \$1-a13 empty empty 17 7 0 10 -4032 -1 -1 1
1;
#X obj 280 415 tgl 15 0 \$1-f14 empty empty 17 7 0 10 -4032 -1 -1 0
1;
#X obj 280 395 tgl 15 0 \$1-e14 empty empty 17 7 0 10 -4032 -1 -1 0
1;
#X obj 280 375 tgl 15 0 \$1-d14 empty empty 17 7 0 10 -4032 -1 -1 0
1;
#X obj 280 355 tgl 15 0 \$1-c14 empty empty 17 7 0 10 -4032 -1 -1 0
1;
#X obj 280 335 tgl 15 0 \$1-b14 empty empty 17 7 0 10 -4032 -1 -1 0
1;
#X obj 280 315 tgl 15 0 \$1-a14 empty empty 17 7 0 10 -4032 -1 -1 1
1;
#X obj 300 415 tgl 15 0 \$1-f15 empty empty 17 7 0 10 -4032 -1 -1 0
1;
#X obj 300 395 tgl 15 0 \$1-e15 empty empty 17 7 0 10 -4032 -1 -1 0
1;
#X obj 300 375 tgl 15 0 \$1-d15 empty empty 17 7 0 10 -4032 -1 -1 0
1;
#X obj 300 355 tgl 15 0 \$1-c15 empty empty 17 7 0 10 -4032 -1 -1 0
1;
#X obj 300 335 tgl 15 0 \$1-b15 empty empty 17 7 0 10 -4032 -1 -1 0
1;
#X obj 300 315 tgl 15 0 \$1-a15 empty empty 17 7 0 10 -4032 -1 -1 1
1;
#X obj 320 415 tgl 15 0 \$1-f16 empty empty 17 7 0 10 -4032 -1 -1 0
1;
#X obj 320 395 tgl 15 0 \$1-e16 empty empty 17 7 0 10 -4032 -1 -1 0
1;
#X obj 320 375 tgl 15 0 \$1-d16 empty empty 17 7 0 10 -4032 -1 -1 0
1;
#X obj 320 355 tgl 15 0 \$1-c16 empty empty 17 7 0 10 -4032 -1 -1 0
1;
#X obj 320 335 tgl 15 0 \$1-b16 empty empty 17 7 0 10 -4032 -1 -1 0
1;
#X obj 320 315 tgl 15 0 \$1-a16 empty empty 17 7 0 10 -4032 -1 -1 1
1;
#X msg -445 489 bang;
#X obj -506 466 pack 1 2 3 4 5 6 7 8 9 10 11 12 13 14 15 16;
#X obj -150 754 OSCroute /1 /2 /3 /4 /5 /6 /7 /8 /9 /10 /11 /12 /13
/14 /15 /16;
#X obj -151 14 r \$1-a1;
#X obj -147 38 r \$1-a2;
#X obj -147 58 r \$1-a3;
#X obj -147 78 r \$1-a4;
#X obj -147 98 r \$1-a5;
#X obj -147 118 r \$1-a6;
#X obj -147 138 r \$1-a7;
#X obj -147 158 r \$1-a8;
#X obj -147 178 r \$1-a9;
#X obj -147 198 r \$1-a10;
#X obj -147 218 r \$1-a11;
#X obj -147 238 r \$1-a12;
#X obj -147 258 r \$1-a13;
#X obj -147 278 r \$1-a14;
#X obj -147 298 r \$1-a15;
#X obj -147 318 r \$1-a16;
#X obj -187 17 r \$1-b1;
#X obj -185 38 r \$1-b2;
#X obj -185 58 r \$1-b3;
#X obj -185 78 r \$1-b4;
#X obj -185 98 r \$1-b5;
#X obj -185 118 r \$1-b6;
#X obj -185 138 r \$1-b7;
#X obj -185 158 r \$1-b8;
#X obj -185 178 r \$1-b9;
#X obj -185 198 r \$1-b10;
#X obj -185 218 r \$1-b11;
#X obj -185 238 r \$1-b12;
#X obj -185 258 r \$1-b13;
#X obj -185 278 r \$1-b14;
#X obj -185 298 r \$1-b15;
#X obj -185 318 r \$1-b16;
#X obj -223 14 r \$1-c1;
#X obj -224 38 r \$1-c2;
#X obj -224 58 r \$1-c3;
#X obj -224 78 r \$1-c4;
#X obj -224 98 r \$1-c5;
#X obj -224 118 r \$1-c6;
#X obj -224 138 r \$1-c7;
#X obj -224 158 r \$1-c8;
#X obj -224 178 r \$1-c9;
#X obj -224 198 r \$1-c10;
#X obj -224 218 r \$1-c11;
#X obj -224 238 r \$1-c12;
#X obj -224 258 r \$1-c13;
#X obj -224 278 r \$1-c14;
#X obj -224 298 r \$1-c15;
#X obj -224 318 r \$1-c16;
#X obj -263 15 r \$1-d1;
#X obj -263 38 r \$1-d2;
#X obj -263 58 r \$1-d3;
#X obj -263 78 r \$1-d4;
#X obj -263 98 r \$1-d5;
#X obj -263 118 r \$1-d6;
#X obj -263 138 r \$1-d7;
#X obj -263 158 r \$1-d8;
#X obj -263 178 r \$1-d9;
#X obj -263 198 r \$1-d10;
#X obj -263 218 r \$1-d11;
#X obj -263 238 r \$1-d12;
#X obj -263 258 r \$1-d13;
#X obj -263 278 r \$1-d14;
#X obj -263 298 r \$1-d15;
#X obj -263 318 r \$1-d16;
#X obj -302 14 r \$1-e1;
#X obj -303 38 r \$1-e2;
#X obj -303 58 r \$1-e3;
#X obj -303 78 r \$1-e4;
#X obj -303 98 r \$1-e5;
#X obj -303 118 r \$1-e6;
#X obj -303 138 r \$1-e7;
#X obj -303 158 r \$1-e8;
#X obj -303 178 r \$1-e9;
#X obj -303 198 r \$1-e10;
#X obj -303 218 r \$1-e11;
#X obj -303 238 r \$1-e12;
#X obj -303 258 r \$1-e13;
#X obj -303 278 r \$1-e14;
#X obj -303 298 r \$1-e15;
#X obj -303 318 r \$1-e16;
#X obj -342 12 r \$1-f1;
#X obj -342 38 r \$1-f2;
#X obj -342 58 r \$1-f3;
#X obj -342 78 r \$1-f4;
#X obj -342 98 r \$1-f5;
#X obj -342 118 r \$1-f6;
#X obj -342 138 r \$1-f7;
#X obj -342 158 r \$1-f8;
#X obj -342 178 r \$1-f9;
#X obj -342 198 r \$1-f10;
#X obj -342 218 r \$1-f11;
#X obj -342 238 r \$1-f12;
#X obj -342 258 r \$1-f13;
#X obj -342 278 r \$1-f14;
#X obj -342 298 r \$1-f15;
#X obj -342 318 r \$1-f16;
#X floatatom -679 251 0 0 0 0 - - -;
#X msg -707 211 1;
#X msg -677 211 2;
#X msg -643 211 3;
#X obj -997 23 tgl 15 0 empty empty empty 17 7 0 10 -262144 -1 -1 0
1;
#X obj -977 29 tgl 15 0 empty empty empty 17 7 0 10 -262144 -1 -1 1
1;
#X obj -957 35 tgl 15 0 empty empty empty 17 7 0 10 -262144 -1 -1 0
1;
#X obj -937 39 tgl 15 0 empty empty empty 17 7 0 10 -262144 -1 -1 0
1;
#X obj -916 46 tgl 15 0 empty empty empty 17 7 0 10 -262144 -1 -1 0
1;
#X obj -897 46 tgl 15 0 empty empty empty 17 7 0 10 -262144 -1 -1 0
1;
#X msg -576 210 5;
#X msg -546 211 6;
#X msg -767 -43 0;
#X msg -756 -34 0;
#X msg -757 -25 0;
#X msg -762 -34 0;
#X msg -760 -41 0;
#X msg -760 -38 0;
#X obj -820 461 spigot;
#X obj -768 459 spigot;
#X obj -719 458 spigot;
#X obj -672 460 spigot;
#X obj -630 460 spigot;
#X obj -591 461 spigot;
#X msg -258 -67 bang;
#X msg -14 -19 bang;
#X msg 30 60 bang;
#X msg 92 144 bang;
#X msg 42 221 bang;
#X obj -275 384 pack f f f f f f f f f f f f f f f f;
#X msg -315 383 bang;
#X msg -1077 -77 1;
#X msg -1077 -41 1;
#X msg -1078 -14 1;
#X msg -1072 33 1;
#X msg -1068 68 1;
#X msg -1058 97 1;
#X obj -1009 423 s13 inst;
#X msg -854 609 \$1;
#X msg -943 682 set \$1-inst;
#X msg -608 212 0;
#X msg -826 682 set \$1-seqd;
#X obj -674 578 s13 seqd;
#X obj -1034 -92 select 1 2 3 0 5 6;
#X obj -500 707 s13 seqdV;
#X msg -505 742 set \$1-seqdV;
#X obj -499 674 pack f f f f f f f f f f f f f f f f;
#X msg -506 585 bang;
#X obj -882 559 r \$0-instrumentID;
#X connect 0 0 2 0;
#X connect 0 1 1 0;
#X connect 1 0 19 0;
#X connect 1 1 21 0;
#X connect 1 2 22 0;
#X connect 1 3 23 0;
#X connect 1 4 24 0;
#X connect 1 5 25 0;
#X connect 1 6 26 0;
#X connect 1 7 27 0;
#X connect 1 8 28 0;
#X connect 1 9 29 0;
#X connect 1 10 30 0;
#X connect 1 11 31 0;
#X connect 1 12 33 0;
#X connect 1 13 34 0;
#X connect 1 14 35 0;
#X connect 1 15 36 0;
#X connect 2 0 37 0;
#X connect 2 1 38 0;
#X connect 2 2 39 0;
#X connect 2 3 40 0;
#X connect 2 4 41 0;
#X connect 2 5 140 0;
#X connect 3 0 139 0;
#X connect 3 0 283 0;
#X connect 3 0 284 0;
#X connect 4 0 138 0;
#X connect 4 0 139 1;
#X connect 4 0 283 1;
#X connect 4 0 284 0;
#X connect 5 0 138 0;
#X connect 5 0 139 2;
#X connect 5 0 283 2;
#X connect 5 0 284 0;
#X connect 6 0 139 3;
#X connect 6 0 138 0;
#X connect 6 0 283 3;
#X connect 6 0 284 0;
#X connect 7 0 139 4;
#X connect 7 0 138 0;
#X connect 7 0 283 4;
#X connect 7 0 284 0;
#X connect 8 0 139 5;
#X connect 8 0 138 0;
#X connect 8 0 283 5;
#X connect 8 0 284 0;
#X connect 9 0 139 6;
#X connect 9 0 138 0;
#X connect 9 0 283 6;
#X connect 9 0 284 0;
#X connect 10 0 139 7;
#X connect 10 0 138 0;
#X connect 10 0 283 7;
#X connect 10 0 284 0;
#X connect 11 0 139 8;
#X connect 11 0 138 0;
#X connect 11 0 283 8;
#X connect 11 0 284 0;
#X connect 12 0 139 9;
#X connect 12 0 138 0;
#X connect 12 0 283 9;
#X connect 12 0 284 0;
#X connect 13 0 139 10;
#X connect 13 0 138 0;
#X connect 13 0 283 10;
#X connect 13 0 284 0;
#X connect 14 0 139 11;
#X connect 14 0 138 0;
#X connect 14 0 283 11;
#X connect 14 0 284 0;
#X connect 15 0 139 12;
#X connect 15 0 138 0;
#X connect 15 0 283 12;
#X connect 15 0 284 0;
#X connect 16 0 139 13;
#X connect 16 0 138 0;
#X connect 16 0 283 13;
#X connect 16 0 284 0;
#X connect 17 0 139 14;
#X connect 17 0 138 0;
#X connect 17 0 283 14;
#X connect 17 0 284 0;
#X connect 18 0 139 15;
#X connect 18 0 138 0;
#X connect 18 0 283 15;
#X connect 18 0 284 0;
#X connect 19 0 3 0;
#X connect 20 0 0 0;
#X connect 21 0 4 0;
#X connect 22 0 5 0;
#X connect 23 0 6 0;
#X connect 24 0 7 0;
#X connect 25 0 8 0;
#X connect 26 0 9 0;
#X connect 27 0 10 0;
#X connect 28 0 11 0;
#X connect 29 0 12 0;
#X connect 30 0 13 0;
#X connect 31 0 14 0;
#X connect 33 0 15 0;
#X connect 34 0 16 0;
#X connect 35 0 17 0;
#X connect 36 0 18 0;
#X connect 37 0 42 0;
#X connect 37 1 48 0;
#X connect 37 2 54 0;
#X connect 37 3 60 0;
#X connect 37 4 66 0;
#X connect 37 5 72 0;
#X connect 37 6 78 0;
#X connect 37 7 84 0;
#X connect 37 8 90 0;
#X connect 37 9 96 0;
#X connect 37 10 102 0;
#X connect 37 11 108 0;
#X connect 37 12 114 0;
#X connect 37 13 120 0;
#X connect 37 14 126 0;
#X connect 37 15 132 0;
#X connect 38 0 43 0;
#X connect 38 1 49 0;
#X connect 38 2 55 0;
#X connect 38 3 61 0;
#X connect 38 4 67 0;
#X connect 38 5 73 0;
#X connect 38 6 79 0;
#X connect 38 7 85 0;
#X connect 38 8 91 0;
#X connect 38 9 97 0;
#X connect 38 10 103 0;
#X connect 38 11 109 0;
#X connect 38 12 115 0;
#X connect 38 13 121 0;
#X connect 38 14 127 0;
#X connect 38 15 133 0;
#X connect 39 0 44 0;
#X connect 39 1 50 0;
#X connect 39 2 56 0;
#X connect 39 3 62 0;
#X connect 39 4 68 0;
#X connect 39 5 74 0;
#X connect 39 6 80 0;
#X connect 39 7 86 0;
#X connect 39 8 92 0;
#X connect 39 9 98 0;
#X connect 39 10 104 0;
#X connect 39 11 110 0;
#X connect 39 12 116 0;
#X connect 39 13 122 0;
#X connect 39 14 128 0;
#X connect 39 15 134 0;
#X connect 40 0 45 0;
#X connect 40 1 51 0;
#X connect 40 2 57 0;
#X connect 40 3 63 0;
#X connect 40 4 69 0;
#X connect 40 5 75 0;
#X connect 40 6 81 0;
#X connect 40 7 87 0;
#X connect 40 8 93 0;
#X connect 40 9 99 0;
#X connect 40 10 105 0;
#X connect 40 11 111 0;
#X connect 40 12 117 0;
#X connect 40 13 123 0;
#X connect 40 14 129 0;
#X connect 40 15 135 0;
#X connect 41 0 46 0;
#X connect 41 1 52 0;
#X connect 41 2 58 0;
#X connect 41 3 64 0;
#X connect 41 4 70 0;
#X connect 41 5 76 0;
#X connect 41 6 82 0;
#X connect 41 7 88 0;
#X connect 41 8 94 0;
#X connect 41 9 100 0;
#X connect 41 10 106 0;
#X connect 41 11 112 0;
#X connect 41 12 118 0;
#X connect 41 13 124 0;
#X connect 41 14 130 0;
#X connect 41 15 136 0;
#X connect 138 0 139 0;
#X connect 140 0 47 0;
#X connect 140 1 53 0;
#X connect 140 2 59 0;
#X connect 140 3 65 0;
#X connect 140 4 71 0;
#X connect 140 5 77 0;
#X connect 140 6 83 0;
#X connect 140 7 89 0;
#X connect 140 8 95 0;
#X connect 140 9 101 0;
#X connect 140 10 107 0;
#X connect 140 11 113 0;
#X connect 140 12 119 0;
#X connect 140 13 125 0;
#X connect 140 14 131 0;
#X connect 140 15 137 0;
#X connect 141 0 261 0;
#X connect 142 0 261 0;
#X connect 143 0 261 0;
#X connect 144 0 261 0;
#X connect 145 0 261 0;
#X connect 146 0 261 0;
#X connect 147 0 261 0;
#X connect 148 0 261 0;
#X connect 149 0 261 0;
#X connect 150 0 261 0;
#X connect 151 0 261 0;
#X connect 152 0 261 0;
#X connect 153 0 261 0;
#X connect 154 0 261 0;
#X connect 155 0 261 0;
#X connect 156 0 261 0;
#X connect 157 0 262 0;
#X connect 158 0 262 0;
#X connect 159 0 262 0;
#X connect 160 0 262 0;
#X connect 161 0 262 0;
#X connect 162 0 262 0;
#X connect 163 0 262 0;
#X connect 164 0 262 0;
#X connect 165 0 262 0;
#X connect 167 0 262 0;
#X connect 168 0 262 0;
#X connect 169 0 262 0;
#X connect 170 0 262 0;
#X connect 171 0 262 0;
#X connect 172 0 262 0;
#X connect 173 0 263 0;
#X connect 174 0 263 0;
#X connect 175 0 263 0;
#X connect 176 0 263 0;
#X connect 177 0 263 0;
#X connect 178 0 263 0;
#X connect 179 0 263 0;
#X connect 180 0 263 0;
#X connect 181 0 263 0;
#X connect 182 0 263 0;
#X connect 183 0 263 0;
#X connect 184 0 263 0;
#X connect 185 0 263 0;
#X connect 186 0 263 0;
#X connect 187 0 263 0;
#X connect 188 0 263 0;
#X connect 189 0 264 0;
#X connect 190 0 264 0;
#X connect 191 0 264 0;
#X connect 192 0 264 0;
#X connect 193 0 264 0;
#X connect 194 0 264 0;
#X connect 195 0 264 0;
#X connect 196 0 264 0;
#X connect 197 0 264 0;
#X connect 198 0 264 0;
#X connect 199 0 264 0;
#X connect 200 0 264 0;
#X connect 201 0 264 0;
#X connect 202 0 264 0;
#X connect 203 0 264 0;
#X connect 204 0 264 0;
#X connect 205 0 265 0;
#X connect 206 0 265 0;
#X connect 207 0 265 0;
#X connect 208 0 265 0;
#X connect 209 0 265 0;
#X connect 210 0 265 0;
#X connect 211 0 265 0;
#X connect 212 0 265 0;
#X connect 213 0 265 0;
#X connect 214 0 265 0;
#X connect 215 0 265 0;
#X connect 216 0 265 0;
#X connect 217 0 265 0;
#X connect 218 0 265 0;
#X connect 219 0 265 0;
#X connect 220 0 265 0;
#X connect 221 0 266 0;
#X connect 221 0 267 0;
#X connect 222 0 266 1;
#X connect 222 0 267 0;
#X connect 223 0 266 2;
#X connect 223 0 267 0;
#X connect 224 0 266 3;
#X connect 224 0 267 0;
#X connect 225 0 266 4;
#X connect 225 0 267 0;
#X connect 226 0 266 5;
#X connect 226 0 267 0;
#X connect 227 0 266 8;
#X connect 227 0 267 0;
#X connect 228 0 266 6;
#X connect 228 0 267 0;
#X connect 229 0 266 7;
#X connect 229 0 267 0;
#X connect 230 0 266 9;
#X connect 230 0 267 0;
#X connect 231 0 266 10;
#X connect 231 0 267 0;
#X connect 232 0 266 11;
#X connect 232 0 267 0;
#X connect 233 0 266 12;
#X connect 233 0 267 0;
#X connect 234 0 266 13;
#X connect 234 0 267 0;
#X connect 235 0 266 14;
#X connect 235 0 267 0;
#X connect 236 0 266 15;
#X connect 236 0 267 0;
#X connect 237 0 280 0;
#X connect 237 0 274 0;
#X connect 238 0 237 0;
#X connect 239 0 237 0;
#X connect 240 0 237 0;
#X connect 241 0 255 1;
#X connect 242 0 256 1;
#X connect 243 0 257 1;
#X connect 244 0 258 1;
#X connect 245 0 259 1;
#X connect 246 0 260 1;
#X connect 247 0 237 0;
#X connect 248 0 237 0;
#X connect 249 0 246 0;
#X connect 249 0 245 0;
#X connect 249 0 244 0;
#X connect 249 0 243 0;
#X connect 249 0 242 0;
#X connect 250 0 241 0;
#X connect 250 0 243 0;
#X connect 250 0 244 0;
#X connect 250 0 245 0;
#X connect 250 0 246 0;
#X connect 251 0 241 0;
#X connect 251 0 242 0;
#X connect 251 0 244 0;
#X connect 251 0 246 0;
#X connect 251 0 245 0;
#X connect 252 0 241 0;
#X connect 252 0 242 0;
#X connect 252 0 243 0;
#X connect 252 0 245 0;
#X connect 252 0 246 0;
#X connect 253 0 246 0;
#X connect 253 0 244 0;
#X connect 253 0 243 0;
#X connect 253 0 242 0;
#X connect 253 0 241 0;
#X connect 254 0 245 0;
#X connect 254 0 244 0;
#X connect 254 0 243 0;
#X connect 254 0 242 0;
#X connect 254 0 241 0;
#X connect 255 0 279 0;
#X connect 256 0 279 0;
#X connect 257 0 279 0;
#X connect 258 0 279 0;
#X connect 259 0 279 0;
#X connect 260 0 279 0;
#X connect 261 0 238 0;
#X connect 262 0 239 0;
#X connect 263 0 240 0;
#X connect 264 0 277 0;
#X connect 265 0 247 0;
#X connect 266 0 260 0;
#X connect 267 0 266 0;
#X connect 267 0 248 0;
#X connect 268 0 241 0;
#X connect 269 0 242 0;
#X connect 270 0 243 0;
#X connect 271 0 244 0;
#X connect 272 0 245 0;
#X connect 273 0 246 0;
#X connect 275 0 278 0;
#X connect 275 0 276 0;
#X connect 275 0 282 0;
#X connect 276 0 274 0;
#X connect 277 0 237 0;
#X connect 278 0 279 0;
#X connect 280 0 241 0;
#X connect 280 0 249 0;
#X connect 280 0 268 0;
#X connect 280 1 242 0;
#X connect 280 1 250 0;
#X connect 280 1 269 0;
#X connect 280 2 243 0;
#X connect 280 2 251 0;
#X connect 280 2 270 0;
#X connect 280 3 244 0;
#X connect 280 3 252 0;
#X connect 280 3 271 0;
#X connect 280 4 245 0;
#X connect 280 4 253 0;
#X connect 280 4 272 0;
#X connect 280 5 246 0;
#X connect 280 5 254 0;
#X connect 280 5 273 0;
#X connect 282 0 281 0;
#X connect 283 0 281 0;
#X connect 284 0 283 0;
#X connect 285 0 275 0;
#X coords 0 -1 1 1 340 200 2 10 300;
#X restore 399 154 pd page-2;
#N canvas 0 30 1278 662 page-3 0;
#X obj 22 6 r \$0-page-3;
#X obj 311 206 tgl 30 0 empty empty empty 17 7 0 10 -159808 -1 -1 0
1;
#X obj 311 245 tgl 30 0 empty empty empty 17 7 0 10 -159808 -1 -1 0
1;
#X obj 311 284 tgl 30 0 empty empty empty 17 7 0 10 -159808 -1 -1 0
1;
#X obj 311 323 tgl 30 0 empty empty empty 17 7 0 10 -159808 -1 -1 0
1;
#X obj 311 362 tgl 30 0 empty empty empty 17 7 0 10 -159808 -1 -1 0
1;
#X obj 22 29 OSCroute /rotary1 /rotary2 /rotary3 /rotary4 /rotary5
/rotary6 /toggle1 /toggle2 /toggle3 /toggle4 /toggle5;
#X obj 20 212 vsl 80 80 0 1 0 0 empty empty empty 0 -9 0 10 -4032 -1
-1 0 1;
#X obj 20 306 vsl 80 80 0 1 0 0 empty empty empty 0 -9 0 10 -4032 -1
-1 0 1;
#X obj 113 212 vsl 80 80 0 1 0 0 empty empty empty 0 -9 0 10 -4034
-1 -1 0 1;
#X obj 113 306 vsl 80 80 0 1 0 0 empty empty empty 0 -9 0 10 -4034
-1 -1 0 1;
#X obj 206 212 vsl 80 80 0 1 0 0 empty empty empty 0 -9 0 10 -257985
-1 -1 0 1;
#X obj 206 306 vsl 80 80 0 1 0 0 empty empty empty 0 -9 0 10 -257985
-1 -1 0 1;
#X obj 11 78 * 1;
#X obj 50 92 * 1;
#X obj 79 72 * 1;
#X obj 136 72 * 1;
#X obj 107 92 * 1;
#X obj 165 92 * 1;
#X obj 19 505 s13 pitch1;
#X obj 117 505 s13 pitch2;
#X obj 206 509 s13 pitch3;
#X obj 304 506 s13 pitch4;
#X obj 394 508 s13 pitch5;
#X obj 486 508 s13 pitch6;
#X msg 18 541 set \$1-pitch1;
#X msg 112 542 set \$1-pitch2;
#X msg 206 541 set \$1-pitch3;
#X msg 300 539 set \$1-pitch4;
#X msg 393 537 set \$1-pitch5;
#X msg 487 537 set \$1-pitch6;
#X msg 243 598 \$1;
#X obj 54 476 * 200;
#X obj 115 476 * 200;
#X obj 230 477 * 200;
#X obj 304 477 * 200;
#X obj 426 479 * 200;
#X obj 485 479 * 200;
#X msg 823 598 \$1;
#X obj 1170 505 s13 se1;
#X obj 1268 501 s13 se2;
#X obj 1356 505 s13 se3;
#X obj 1454 502 s13 se4;
#X obj 1545 503 s13 se5;
#X msg 1168 537 set \$1-se1;
#X msg 1262 538 set \$1-se2;
#X msg 1356 537 set \$1-se3;
#X msg 1450 535 set \$1-se4;
#X msg 1543 533 set \$1-se5;
#X obj 388 585 r \$0-instrumentID;
#X obj 971 614 r \$0-instrumentID;
#X floatatom 631 154 5 0 0 0 - - -;
#X obj 692 504 s13 ef2;
#X obj 786 509 s13 ef3;
#X obj 884 508 s13 ef4;
#X obj 599 490 s13 ef1;
#X obj 985 498 s13 ef5;
#X obj 1073 506 s13 ef6;
#X msg 598 541 set \$1-ef1;
#X msg 692 542 set \$1-ef2;
#X msg 786 541 set \$1-ef3;
#X msg 880 539 set \$1-ef4;
#X msg 973 537 set \$1-ef5;
#X msg 1067 537 set \$1-ef6;
#X connect 0 0 6 0;
#X connect 1 0 39 0;
#X connect 2 0 40 0;
#X connect 3 0 41 0;
#X connect 4 0 42 0;
#X connect 5 0 43 0;
#X connect 6 0 13 0;
#X connect 6 1 14 0;
#X connect 6 2 15 0;
#X connect 6 3 17 0;
#X connect 6 4 16 0;
#X connect 6 5 18 0;
#X connect 6 6 5 0;
#X connect 6 7 4 0;
#X connect 6 8 3 0;
#X connect 6 9 2 0;
#X connect 6 10 1 0;
#X connect 7 0 32 0;
#X connect 7 0 55 0;
#X connect 8 0 35 0;
#X connect 8 0 54 0;
#X connect 9 0 33 0;
#X connect 9 0 52 0;
#X connect 10 0 36 0;
#X connect 10 0 56 0;
#X connect 11 0 34 0;
#X connect 11 0 53 0;
#X connect 12 0 37 0;
#X connect 12 0 51 0;
#X connect 12 0 57 0;
#X connect 13 0 7 0;
#X connect 14 0 9 0;
#X connect 15 0 11 0;
#X connect 16 0 10 0;
#X connect 17 0 8 0;
#X connect 18 0 12 0;
#X connect 25 0 19 0;
#X connect 26 0 20 0;
#X connect 27 0 21 0;
#X connect 28 0 22 0;
#X connect 29 0 23 0;
#X connect 30 0 24 0;
#X connect 31 0 25 0;
#X connect 31 0 26 0;
#X connect 31 0 27 0;
#X connect 31 0 28 0;
#X connect 31 0 29 0;
#X connect 31 0 30 0;
#X connect 32 0 19 0;
#X connect 33 0 20 0;
#X connect 34 0 21 0;
#X connect 35 0 22 0;
#X connect 36 0 23 0;
#X connect 37 0 24 0;
#X connect 38 0 58 0;
#X connect 38 0 59 0;
#X connect 38 0 60 0;
#X connect 38 0 61 0;
#X connect 38 0 62 0;
#X connect 38 0 63 0;
#X connect 38 0 44 0;
#X connect 38 0 45 0;
#X connect 38 0 46 0;
#X connect 38 0 47 0;
#X connect 38 0 48 0;
#X connect 44 0 39 0;
#X connect 45 0 40 0;
#X connect 46 0 41 0;
#X connect 47 0 42 0;
#X connect 48 0 43 0;
#X connect 49 0 31 0;
#X connect 50 0 38 0;
#X connect 58 0 55 0;
#X connect 59 0 52 0;
#X connect 60 0 53 0;
#X connect 61 0 54 0;
#X connect 62 0 56 0;
#X connect 63 0 57 0;
#X coords 0 -1 1 1 340 200 2 10 200;
#X restore 20 387 pd page-3;
#N canvas 0 30 1278 683 page-4 0;
#X obj 311 216 tgl 30 0 empty empty empty 17 7 0 10 -159808 -1 -1 0
1;
#X obj 311 255 tgl 30 0 empty empty empty 17 7 0 10 -159808 -1 -1 0
1;
#X obj 311 294 tgl 30 0 empty empty empty 17 7 0 10 -159808 -1 -1 0
1;
#X obj 311 333 tgl 30 0 empty empty empty 17 7 0 10 -159808 -1 -1 0
1;
#X obj 311 372 tgl 30 0 empty empty empty 17 7 0 10 -159808 -1 -1 0
1;
#X obj 22 6 r \$0-page-4;
#X obj 25 219 grid grid1 270 0 270 180 0 180 0 1 1 10 10 570 285;
#X obj 22 29 OSCroute /xy /toggle1 /toggle2 /toggle3 /toggle4 /toggle5
;
#X obj 22 53 unpack 0.1 0.1;
#X obj 22 156 pack 0.1 0.1;
#X obj 22 76 * 180;
#X obj 69 76 * 270;
#X msg 22 104 180 \$1;
#X obj 22 127 -;
#X msg 22 178 goto \$2 \$1;
#X obj 530 275 s13 se6;
#X msg 548 207 set \$1-se6;
#X msg 419 178 \$1;
#X obj 407 119 r \$0-instrumentID;
#X obj 601 315 s13 accE;
#X msg 635 207 set \$1-accE;
#X msg 760 304 set \$1-pos;
#X obj 726 412 s13 pos;
#X floatatom 308 498 5 0 0 0 - - -;
#X connect 0 0 15 0;
#X connect 1 0 19 0;
#X connect 5 0 7 0;
#X connect 6 0 23 0;
#X connect 7 0 8 0;
#X connect 7 1 4 0;
#X connect 7 2 3 0;
#X connect 7 3 2 0;
#X connect 7 4 1 0;
#X connect 7 5 0 0;
#X connect 8 0 10 0;
#X connect 8 1 11 0;
#X connect 9 0 14 0;
#X connect 10 0 12 0;
#X connect 11 0 9 1;
#X connect 12 0 13 0;
#X connect 13 0 9 0;
#X connect 14 0 6 0;
#X connect 16 0 15 0;
#X connect 17 0 16 0;
#X connect 17 0 20 0;
#X connect 17 0 21 0;
#X connect 18 0 17 0;
#X connect 20 0 19 0;
#X connect 21 0 22 0;
#X connect 23 0 22 0;
#X coords 0 -1 1 1 340 200 2 10 210;
#X restore 397 386 pd page-4;
#X floatatom 293 133 5 0 0 0 - - -;
#X floatatom 351 134 5 0 0 0 - - -;
#X floatatom 465 113 5 0 0 0 - - -;
#X obj 226 53 OSCroute /accxyz;
#X obj 23 16 inlet;
#X obj 427 54 s13 acc;
#X msg 427 -8 \$1;
#X obj 427 -39 r \$0-instrumentID;
#X obj 260 -67 loadbang;
#X obj 260 -36 f \$1;
#X obj 260 -1 s \$0-instrumentID;
#X obj 258 106 unpack f f f;
#X obj 558 57 s13 acc;
#X msg 558 -5 \$1;
#X obj 558 -36 r \$0-instrumentID;
#X msg 427 27 set \$1-accX;
#X msg 558 30 set \$1-accY;
#X msg 803 1 \$1;
#X obj 758 -49 r \$0-instrumentID;
#X obj 797 63 s13 preset;
#X msg 803 36 set \$1-preset;
#X obj 743 20 pipe 10;
#X connect 0 0 1 0;
#X connect 0 1 2 0;
#X connect 0 2 3 0;
#X connect 0 3 4 0;
#X connect 10 0 14 0;
#X connect 11 0 21 0;
#X connect 12 0 20 0;
#X connect 13 0 0 0;
#X connect 13 0 12 0;
#X connect 15 0 24 0;
#X connect 16 0 15 0;
#X connect 17 0 18 0;
#X connect 18 0 19 0;
#X connect 20 0 9 0;
#X connect 20 1 10 0;
#X connect 20 2 11 0;
#X connect 22 0 25 0;
#X connect 23 0 22 0;
#X connect 24 0 14 0;
#X connect 25 0 21 0;
#X connect 26 0 29 0;
#X connect 27 0 26 0;
#X connect 27 0 30 0;
#X connect 29 0 28 0;
#X connect 30 0 28 0;
#X coords 0 0 1 1 85 60 0;
