#N canvas 359 53 954 544 10;
#X obj 406 93 soundfiler;
#X floatatom 406 113 8 0 0 0 - - -;
#N canvas 0 22 450 300 (subpatch) 0;
#X array mlab 205158 float 2;
#X coords 0 1 205158 -1 380 140 1;
#X restore 18 9 graph;
#X obj 42 181 tabplay~ mlab;
#X obj 73 241 *~;
#X floatatom 124 253 5 0 0 0 - - -;
#X floatatom 85 270 5 0 0 0 - - -;
#X obj 124 270 dbtorms;
#X msg 704 14 \; pd dsp 1 \;;
#X msg 779 13 \; pd dsp 0 \;;
#X obj 71 381 dac~;
#X msg 42 157 bang;
#X obj 74 320 +~;
#X floatatom 124 314 8 0 0 0 - - -;
#X obj 140 423 delwrite~ sol 6000;
#X obj 124 343 delread~ sol 1600;
#X floatatom 229 389 5 0 0 0 - - -;
#X floatatom 132 393 5 0 0 0 - - -;
#X obj 172 387 dbtorms;
#X obj 55 423 send~ rec3;
#X obj 126 235 hsl 128 15 0 100 0 0 empty empty empty -2 -6 0 8 -262144
-1 -1 0 1;
#X obj 127 297 hsl 128 15 0 10000 0 0 empty empty empty -2 -6 0 8 -262144
-1 -1 317 1;
#X text 129 325 sound delay control in ms;
#X text 173 439 assigns sound delay;
#X text 169 252 volume controler;
#X text 173 402 delay volume controler;
#X obj 407 132 / 44.1;
#X floatatom 456 133 8 0 0 0 - - -;
#X obj 405 48 openpanel;
#X msg 405 67 read -resize \$1 mlab;
#X text 481 95 reads the located sound file into the tareget array
;
#X obj 405 27 bng 15 250 50 0 empty empty empty 0 -6 0 8 -262144 -1
-1;
#X text 470 113 amount of the samples in the loaded sound file;
#X text 81 154 plays the audio file from;
#X text 81 165 the target array table;
#X obj 175 369 hsl 128 15 0 1 0 0 empty empty empty -2 -6 0 8 -262144
-1 -1 0 1;
#X text 758 55 ON/OFF;
#X text 693 43 digital sound processing;
#X obj 125 372 *~;
#X text 517 133 sound file lenght in ms;
#X obj 331 205 inlet~;
#X obj 411 265 loadbang;
#X msg 369 292 250;
#X obj 367 348 inlet;
#X connect 0 0 1 0;
#X connect 1 0 26 0;
#X connect 4 0 12 0;
#X connect 5 0 7 0;
#X connect 6 0 4 1;
#X connect 7 0 6 0;
#X connect 11 0 3 0;
#X connect 12 0 10 0;
#X connect 12 0 10 1;
#X connect 12 0 14 0;
#X connect 12 0 19 0;
#X connect 13 0 15 0;
#X connect 15 0 38 0;
#X connect 16 0 18 0;
#X connect 17 0 38 1;
#X connect 20 0 5 0;
#X connect 21 0 13 0;
#X connect 26 0 27 0;
#X connect 28 0 29 0;
#X connect 29 0 0 0;
#X connect 31 0 28 0;
#X connect 35 0 16 0;
#X connect 35 0 17 0;
#X connect 38 0 12 1;
#X connect 40 0 4 0;
#X connect 41 0 42 0;
#X connect 42 0 21 0;
#X connect 43 0 35 0;
