#N canvas 0 30 1278 683 10;
#X declare -lib mrpeach;
#X declare -lib cyclone;
#X declare -lib cyclone;
#X declare -lib cyclone;
#X declare -lib cyclone;
#X declare -lib cyclone;
#X declare -lib cyclone;
#X declare -lib cyclone;
#X declare -lib cyclone;
#X declare -lib cyclone;
#X declare -lib cyclone;
#X declare -lib cyclone;
#X declare -lib cyclone;
#X declare -lib cyclone;
#X declare -lib cyclone;
#X declare -lib cyclone;
#X declare -lib cyclone;
#X declare -lib cyclone;
#X declare -lib cyclone;
#X declare -lib cyclone;
#X declare -lib cyclone;
#X declare -lib cyclone;
#X declare -lib cyclone;
#X declare -lib cyclone;
#X declare -lib cyclone;
#X declare -lib cyclone;
#X declare -lib cyclone;
#X declare -lib cyclone;
#X declare -lib cyclone;
#X declare -lib cyclone;
#X declare -lib cyclone;
#X declare -lib cyclone;
#X declare -lib cyclone;
#X declare -lib mrpeach;
#X declare -lib cyclone;
#X declare -lib cyclone;
#X declare -lib cyclone;
#X declare -lib cyclone;
#X declare -lib cyclone;
#X declare -lib cyclone;
#X declare -lib cyclone;
#X declare -lib cyclone;
#X declare -lib cyclone;
#X declare -lib cyclone;
#X declare -lib cyclone;
#X declare -lib cyclone;
#X declare -lib cyclone;
#X declare -lib cyclone;
#X declare -lib cyclone;
#X declare -lib cyclone;
#X declare -lib cyclone;
#X declare -lib cyclone;
#X declare -lib cyclone;
#X declare -lib cyclone;
#X declare -lib cyclone;
#X declare -lib cyclone;
#X declare -lib cyclone;
#X declare -lib cyclone;
#X declare -lib cyclone;
#X declare -lib cyclone;
#X declare -lib cyclone;
#X declare -lib cyclone;
#X declare -lib cyclone;
#X declare -lib cyclone;
#X declare -lib cyclone;
#X declare -lib cyclone;
#X declare -lib mrpeach;
#X declare -lib cyclone;
#X declare -lib cyclone;
#X declare -lib cyclone;
#X declare -lib cyclone;
#X declare -lib cyclone;
#X declare -lib cyclone;
#X declare -lib cyclone;
#X declare -lib cyclone;
#X declare -lib cyclone;
#X declare -lib cyclone;
#X declare -lib cyclone;
#X declare -lib cyclone;
#X declare -lib cyclone;
#X declare -lib cyclone;
#X declare -lib cyclone;
#X declare -lib cyclone;
#X declare -lib cyclone;
#X declare -lib cyclone;
#X declare -lib cyclone;
#X declare -lib cyclone;
#X declare -lib cyclone;
#X declare -lib cyclone;
#X declare -lib cyclone;
#X declare -lib cyclone;
#X declare -lib cyclone;
#X declare -lib cyclone;
#X declare -lib cyclone;
#X declare -lib cyclone;
#X declare -lib cyclone;
#X declare -lib cyclone;
#X declare -lib cyclone;
#X declare -lib cyclone;
#X declare -lib mrpeach;
#X declare -lib cyclone;
#X declare -lib cyclone;
#X declare -lib cyclone;
#X declare -lib cyclone;
#X declare -lib cyclone;
#X declare -lib cyclone;
#X declare -lib cyclone;
#X declare -lib cyclone;
#X declare -lib cyclone;
#X declare -lib cyclone;
#X declare -lib cyclone;
#X declare -lib cyclone;
#X declare -lib cyclone;
#X declare -lib cyclone;
#X declare -lib cyclone;
#X declare -lib cyclone;
#X declare -lib cyclone;
#X declare -lib cyclone;
#X declare -lib cyclone;
#X declare -lib cyclone;
#X declare -lib cyclone;
#X declare -lib cyclone;
#X declare -lib cyclone;
#X declare -lib cyclone;
#X declare -lib cyclone;
#X declare -lib cyclone;
#X declare -lib cyclone;
#X declare -lib cyclone;
#X declare -lib cyclone;
#X declare -lib cyclone;
#X declare -lib cyclone;
#X declare -lib cyclone;
#X obj 272 28 loadbang;
#X obj -155 19 dumpOSC 12000;
#X obj -155 101 OSCroute /1 /2 /3 /4 /5 /6 /7 /8;
#X obj 392 160 drum-machine1/drum-machine1 1;
#X msg 518 55 \$1;
#X floatatom 574 95 5 0 0 0 - - -;
#X text 565 68 General Tempo;
#N canvas 296 156 450 300 setTempo 0;
#X obj 205 76 receive13 1-tempo;
#X obj 176 242 outlet;
#X obj 205 102 receive13 2-tempo;
#X obj 205 125 receive13 3-tempo;
#X obj 206 148 receive13 4-tempo;
#X obj 120 43 vsl 15 128 1 240 0 0 empty empty empty 0 -9 0 10 -262144
-1 -1 0 1;
#X obj 21 205 maxlib/scale 0 240 240 1;
#X connect 0 0 5 0;
#X connect 2 0 5 0;
#X connect 3 0 5 0;
#X connect 4 0 5 0;
#X connect 5 0 6 0;
#X connect 6 0 1 0;
#X restore 518 20 pd setTempo;
#X obj -132 291 beatmachine-midi 1;
#X obj 387 55 synth4 8;
#X obj 389 78 synth4 7;
#X obj 392 131 synth4 5;
#X obj 392 103 synth4 6;
#X obj -61 225 beatmachine-midi 4;
#X obj -37 199 beatmachine-midi 5;
#X obj 34 139 beatmachine-midi 8;
#X obj 10 158 beatmachine-midi 7;
#X obj -14 178 beatmachine-midi 6;
#X obj -85 247 beatmachine-midi 3;
#X obj -108 266 beatmachine-midi 2;
#X obj 392 193 drum-machine1/drum-machine1 2;
#X obj 390 225 drum-machine1/drum-machine1 3;
#X obj 389 259 drum-machine1/drum-machine1 4;
#X connect 0 0 3 0;
#X connect 0 0 9 0;
#X connect 0 0 10 0;
#X connect 0 0 11 0;
#X connect 0 0 12 0;
#X connect 0 0 20 0;
#X connect 0 0 21 0;
#X connect 0 0 22 0;
#X connect 1 0 2 0;
#X connect 2 0 8 0;
#X connect 2 1 19 0;
#X connect 2 2 18 0;
#X connect 2 3 13 0;
#X connect 2 4 14 0;
#X connect 2 5 17 0;
#X connect 2 6 16 0;
#X connect 2 7 15 0;
#X connect 4 0 3 1;
#X connect 4 0 5 0;
#X connect 4 0 9 1;
#X connect 4 0 10 1;
#X connect 4 0 11 1;
#X connect 4 0 12 1;
#X connect 4 0 20 1;
#X connect 4 0 21 1;
#X connect 4 0 22 1;
#X connect 7 0 4 0;
