#N canvas 39 57 1381 852 12;
#X declare -lib mrpeach;
#X declare -lib cyclone;
#X declare -lib cyclone;
#X declare -lib cyclone;
#X declare -lib cyclone;
#X declare -lib cyclone;
#X declare -lib cyclone;
#X declare -lib cyclone;
#X declare -lib cyclone;
#X declare -lib cyclone;
#X declare -lib cyclone;
#X declare -lib cyclone;
#X declare -lib cyclone;
#X declare -lib cyclone;
#X declare -lib cyclone;
#X declare -lib cyclone;
#X declare -lib cyclone;
#X declare -lib cyclone;
#X declare -lib cyclone;
#X declare -lib cyclone;
#X declare -lib cyclone;
#X declare -lib cyclone;
#X declare -lib cyclone;
#X declare -lib cyclone;
#X declare -lib cyclone;
#X declare -lib cyclone;
#X declare -lib cyclone;
#X declare -lib cyclone;
#X declare -lib cyclone;
#X declare -lib cyclone;
#X declare -lib cyclone;
#X declare -lib cyclone;
#X declare -lib cyclone;
#X obj 1 -39 cnv 20 400 300 empty empty inputs 20 12 0 14 -233017 -66577
0;
#X obj 432 151 cnv 15 100 100 empty empty empty 20 12 0 14 -233017
-66577 0;
#X obj 281 61 cnv 15 120 200 empty empty master 20 12 0 14 -195568
-66577 0;
#N canvas 305 171 657 288 guts 0;
#N canvas 0 22 527 557 ch2 0;
#X obj 89 132 *~ 1;
#X floatatom 145 75 5 0 0 0 - in2Vol -;
#X obj 174 134 *~ 1;
#X obj 145 94 line 50;
#X obj 74 167 throw~ mainL;
#X obj 188 167 throw~ mainR;
#X floatatom 126 191 5 0 0 0 - in2send1 -;
#X obj 126 210 line 50;
#X obj 90 269 *~;
#X obj 192 270 *~;
#X obj 69 305 throw~ send1L;
#X obj 209 305 throw~ send1R;
#X floatatom 135 342 5 0 0 0 - in2send2 -;
#X obj 135 361 line 50;
#X obj 99 420 *~;
#X obj 201 421 *~;
#X obj 78 456 throw~ send2L;
#X obj 218 456 throw~ send2R;
#X obj 33 36 r~ in2L;
#X obj 249 32 r~ in2R;
#X text 102 3 input channel 2;
#X connect 0 0 4 0;
#X connect 1 0 3 0;
#X connect 2 0 5 0;
#X connect 3 0 0 1;
#X connect 3 0 2 1;
#X connect 6 0 7 0;
#X connect 7 0 8 1;
#X connect 7 0 9 1;
#X connect 8 0 10 0;
#X connect 9 0 11 0;
#X connect 12 0 13 0;
#X connect 13 0 14 1;
#X connect 13 0 15 1;
#X connect 14 0 16 0;
#X connect 15 0 17 0;
#X connect 18 0 0 0;
#X connect 18 0 8 0;
#X connect 18 0 14 0;
#X connect 19 0 2 0;
#X connect 19 0 9 0;
#X connect 19 0 15 0;
#X restore 86 90 pd ch2;
#N canvas 387 72 482 565 ch3 0;
#X obj 117 131 *~ 1;
#X floatatom 173 74 5 0 0 0 - in3Vol -;
#X obj 202 133 *~ 1;
#X obj 173 93 line 50;
#X obj 102 166 throw~ mainL;
#X obj 216 166 throw~ mainR;
#X floatatom 154 190 5 0 0 0 - in3send1 -;
#X obj 154 209 line 50;
#X obj 118 268 *~;
#X obj 220 269 *~;
#X obj 97 304 throw~ send1L;
#X obj 237 304 throw~ send1R;
#X floatatom 163 341 5 0 0 0 - in3send2 -;
#X obj 163 360 line 50;
#X obj 127 419 *~;
#X obj 229 420 *~;
#X obj 106 455 throw~ send2L;
#X obj 246 455 throw~ send2R;
#X text 113 5 input channel 3;
#X obj 72 30 r~ in3L;
#X obj 263 31 r~ in3R;
#X connect 0 0 4 0;
#X connect 1 0 3 0;
#X connect 2 0 5 0;
#X connect 3 0 0 1;
#X connect 3 0 2 1;
#X connect 6 0 7 0;
#X connect 7 0 8 1;
#X connect 7 0 9 1;
#X connect 8 0 10 0;
#X connect 9 0 11 0;
#X connect 12 0 13 0;
#X connect 13 0 14 1;
#X connect 13 0 15 1;
#X connect 14 0 16 0;
#X connect 15 0 17 0;
#X connect 19 0 0 0;
#X connect 19 0 8 0;
#X connect 19 0 14 0;
#X connect 20 0 2 0;
#X connect 20 0 9 0;
#X connect 20 0 15 0;
#X restore 85 116 pd ch3;
#N canvas 387 72 482 565 ch4 0;
#X obj 117 131 *~ 1;
#X floatatom 173 74 5 0 0 0 - in4Vol -;
#X obj 202 133 *~ 1;
#X obj 173 93 line 50;
#X obj 102 166 throw~ mainL;
#X obj 216 166 throw~ mainR;
#X floatatom 154 190 5 0 0 0 - in4send1 -;
#X obj 154 209 line 50;
#X obj 118 268 *~;
#X obj 220 269 *~;
#X obj 97 304 throw~ send1L;
#X obj 237 304 throw~ send1R;
#X floatatom 163 341 5 0 0 0 - in4send2 -;
#X obj 163 360 line 50;
#X obj 127 419 *~;
#X obj 229 420 *~;
#X obj 106 455 throw~ send2L;
#X obj 246 455 throw~ send2R;
#X text 113 5 input channel 4;
#X obj 63 30 r~ in4L;
#X obj 283 27 r~ in4R;
#X connect 0 0 4 0;
#X connect 1 0 3 0;
#X connect 2 0 5 0;
#X connect 3 0 0 1;
#X connect 3 0 2 1;
#X connect 6 0 7 0;
#X connect 7 0 8 1;
#X connect 7 0 9 1;
#X connect 8 0 10 0;
#X connect 9 0 11 0;
#X connect 12 0 13 0;
#X connect 13 0 14 1;
#X connect 13 0 15 1;
#X connect 14 0 16 0;
#X connect 15 0 17 0;
#X connect 19 0 0 0;
#X connect 19 0 8 0;
#X connect 19 0 14 0;
#X connect 20 0 2 0;
#X connect 20 0 9 0;
#X connect 20 0 15 0;
#X restore 84 144 pd ch4;
#X text 84 35 inputs;
#N canvas 387 72 430 243 s1 0;
#X obj 117 131 *~ 1;
#X floatatom 173 74 5 0 0 0 - send1vol -;
#X obj 202 133 *~ 1;
#X obj 173 93 line 50;
#X obj 102 166 throw~ mainL;
#X obj 216 166 throw~ mainR;
#X text 114 5 input send 1;
#X obj 117 30 r~ ret1L;
#X obj 203 28 r~ ret1R;
#X connect 0 0 4 0;
#X connect 1 0 3 0;
#X connect 2 0 5 0;
#X connect 3 0 0 1;
#X connect 3 0 2 1;
#X connect 7 0 0 0;
#X connect 8 0 2 0;
#X restore 91 178 pd s1;
#N canvas 387 72 501 541 ch1 0;
#X obj 117 131 *~ 1;
#X floatatom 173 74 5 0 0 0 - in1Vol -;
#X obj 82 25 r~ in1L;
#X obj 264 28 r~ in1R;
#X obj 202 133 *~ 1;
#X obj 173 93 line 50;
#X obj 102 166 throw~ mainL;
#X obj 216 166 throw~ mainR;
#X floatatom 154 190 5 0 0 0 - in1send1 -;
#X obj 154 209 line 50;
#X obj 118 268 *~;
#X obj 220 269 *~;
#X obj 97 304 throw~ send1L;
#X obj 237 304 throw~ send1R;
#X floatatom 163 341 5 0 0 0 - in1send2 -;
#X obj 163 360 line 50;
#X obj 127 419 *~;
#X obj 229 420 *~;
#X obj 106 455 throw~ send2L;
#X obj 246 455 throw~ send2R;
#X text 113 5 input channel 1;
#X connect 0 0 6 0;
#X connect 1 0 5 0;
#X connect 2 0 0 0;
#X connect 2 0 10 0;
#X connect 2 0 16 0;
#X connect 3 0 4 0;
#X connect 3 0 11 0;
#X connect 3 0 17 0;
#X connect 4 0 7 0;
#X connect 5 0 0 1;
#X connect 5 0 4 1;
#X connect 8 0 9 0;
#X connect 9 0 10 1;
#X connect 9 0 11 1;
#X connect 10 0 12 0;
#X connect 11 0 13 0;
#X connect 14 0 15 0;
#X connect 15 0 16 1;
#X connect 15 0 17 1;
#X connect 16 0 18 0;
#X connect 17 0 19 0;
#X restore 87 64 pd ch1;
#N canvas 34 22 458 308 s1out 0;
#X obj 99 57 catch~ send1L;
#X obj 99 88 s~ send1L;
#X obj 246 58 catch~ send1R;
#X obj 246 89 s~ send1R;
#X connect 0 0 1 0;
#X connect 2 0 3 0;
#X restore 185 70 pd s1out;
#N canvas 387 72 430 243 s2 0;
#X obj 117 131 *~ 1;
#X floatatom 173 74 5 0 0 0 - send2vol -;
#X obj 202 133 *~ 1;
#X obj 173 93 line 50;
#X obj 102 166 throw~ mainL;
#X obj 216 166 throw~ mainR;
#X text 114 5 input send 1;
#X obj 117 30 r~ ret2L;
#X obj 203 28 r~ ret2R;
#X connect 0 0 4 0;
#X connect 1 0 3 0;
#X connect 2 0 5 0;
#X connect 3 0 0 1;
#X connect 3 0 2 1;
#X connect 7 0 0 0;
#X connect 8 0 2 0;
#X restore 89 205 pd s2;
#N canvas 34 22 462 312 s2out 0;
#X obj 99 57 catch~ send2L;
#X obj 99 88 s~ send2L;
#X obj 246 58 catch~ send2R;
#X obj 246 89 s~ send2R;
#X connect 0 0 1 0;
#X connect 2 0 3 0;
#X restore 186 97 pd s2out;
#N canvas 0 22 609 323 main 0;
#X obj 86 217 dac~;
#X obj 149 140 *~;
#X floatatom 93 80 5 0 0 0 - masterVol -;
#X obj 50 130 *~;
#X obj 92 99 line 50;
#X obj 53 51 catch~ mainL;
#X obj 168 51 catch~ mainR;
#X text 105 20 main output;
#X text 166 211 <-- change here if you don't want dac output;
#X connect 1 0 0 1;
#X connect 2 0 4 0;
#X connect 3 0 0 0;
#X connect 4 0 1 1;
#X connect 4 0 3 1;
#X connect 5 0 3 0;
#X connect 6 0 1 0;
#X restore 186 135 pd main;
#X text 185 36 outputs;
#X text 255 137 <-- change here if you don't want dac output;
#X restore 452 219 pd guts;
#X obj 13 124 vsl 15 128 0 1 0 0 in1Vol in1Volset 1 0 -8 0 8 -262144
-1 -1 6700 1;
#X obj 75 124 vsl 15 128 0 1 0 0 in2Vol in2Volset 2 0 -8 0 8 -262144
-1 -1 0 1;
#X obj 361 105 vsl 30 128 0 1 0 0 masterVol masterVolset master -8
-8 0 8 -225271 -1 -1 11100 1;
#X msg 449 -28 \; pd dsp 1;
#X msg 449 13 \; pd dsp 0;
#N canvas 0 22 466 316 cpu 0;
#X obj 124 253 outlet;
#X obj 118 168 cputime;
#X obj 118 28 loadbang;
#X obj 118 112 metro 1000;
#X msg 118 56 1;
#X floatatom 118 84 0 0 0 0 - - -;
#X obj 118 140 t b b;
#X obj 118 228 * 0.1;
#X obj 118 197 int;
#X text 163 84 <-- on/off;
#X connect 1 0 8 0;
#X connect 2 0 4 0;
#X connect 3 0 6 0;
#X connect 4 0 5 0;
#X connect 5 0 3 0;
#X connect 6 0 1 0;
#X connect 6 1 1 1;
#X connect 7 0 0 0;
#X connect 8 0 7 0;
#X restore 456 83 pd cpu;
#X obj 1 282 cnv 15 400 200 empty empty sends 20 12 0 14 -195568 -66577
0;
#X obj 1 -80 cnv 15 400 40 empty empty 4_channel_stereo_mixer 20 12
0 14 -195568 -66577 0;
#X obj 22 385 r~ send1L;
#X obj 100 385 r~ send1R;
#X obj 80 322 vsl 20 50 0 1 0 0 send1vol send1volset ret_1_vol 0 -8
0 8 -262144 -1 -1 0 1;
#X obj 266 318 vsl 20 50 0 1 0 0 send2vol send2volset ret_2_vol 0 -8
0 8 -262144 -1 -1 0 1;
#X obj 13 66 vsl 15 30 0 1 0 0 in1send1 in1send1set send1 0 -8 0 8
-262144 -1 -1 0 1;
#X obj 14 14 vsl 15 30 0 1 0 0 in1send2 in1send2set send2 0 -8 0 8
-262144 -1 -1 0 1;
#X obj 75 66 vsl 15 30 0 1 0 0 in2send1 in2send1set send1 0 -8 0 8
-262144 -1 -1 0 1;
#X obj 75 14 vsl 15 30 0 1 0 0 in2send2 in2send2set send2 0 -8 0 8
-262144 -1 -1 0 1;
#X obj 145 124 vsl 15 128 0 1 0 0 in3Vol in3Volset 3 0 -8 0 8 -262144
-1 -1 0 1;
#X obj 215 124 vsl 15 128 0 1 0 0 in4Vol in3Volset 4 0 -8 0 8 -262144
-1 -1 0 1;
#X obj 145 66 vsl 15 30 0 1 0 0 in3send1 in3send1set send1 0 -8 0 8
-262144 -1 -1 0 1;
#X obj 146 14 vsl 15 30 0 1 0 0 in3send2 in3send2set send2 0 -8 0 8
-262144 -1 -1 0 1;
#X obj 215 66 vsl 15 30 0 1 0 0 in4send1 in4send1set send1 0 -8 0 8
-262144 -1 -1 0 1;
#X obj 216 14 vsl 15 30 0 1 0 0 in4send2 in4send2set send2 0 -8 0 8
-262144 -1 -1 0 1;
#X obj 22 452 s~ ret1L;
#X obj 100 453 s~ ret1R;
#X obj 194 451 s~ ret2L;
#X obj 272 452 s~ ret2R;
#X text 13 485 TODO: add pan - add mute - add solo;
#N canvas 183 92 527 460 help 1;
#X text 34 116 replace [dac~] in source patch with;
#X text 31 135 [s~ in1L] and [s~ in1R] for channel 1;
#X text 35 154 this way the output is redirected to the mixer;
#X text 4 95 how to use inputs:;
#X text 31 222 [r~ send1L] and [r~ send1R] (for send1);
#X text 35 241 this way you can set which channel and which % you want
for every channel;
#X text 33 203 replace [adc~] in dest patch with;
#X text 3 182 how to use outputs (sends):;
#X text 34 284 sends can be used simply with effects attaching your
effect's inlet to [r~ send1L] and [r~ send1R] (if using send 1) and
attaching your effect's outlets to [s~ ret1L] and [s~ ret1R];
#X text 3 370 TODO:;
#X text 33 391 panning would be nice;
#X text 5 7 why?:;
#X text 35 28 to help using different patches in realtime and redirect
one patch's output to another patch's input;
#X restore 450 161 pd help;
#N canvas 90 190 421 128 credits 0;
#X text 31 -50 by davide morelli;
#X text 28 -22 info@davidemorelli.it;
#X text 29 10 http://www.davidemorelli.it;
#X text 29 10 http://www.davidemorelli.it;
#X text 28 37 http://www.puredata.org/Members/dmorelli;
#X text 265 -50 febbraio 2005;
#X restore 439 190 pd credits;
#X obj 457 105 nbx 5 14 -1e+37 1e+37 0 0 empty empty empty 0 -6 0 10
-258699 -1 -1 32 256;
#X obj 1 261 cnv 15 400 20 empty empty empty 20 12 0 14 -166441 -66577
0;
#N canvas 63 71 691 399 riverbero 0;
#X obj 92 159 freeverb~;
#X obj 80 125 inlet~;
#X obj 165 125 inlet~;
#X obj 76 207 outlet~;
#X obj 154 207 outlet~;
#X msg 305 126 roomsize \$1;
#X obj 308 106 hsl 128 15 0.5 1.02 1 0 empty roomsize room_size -2
-6 0 8 -262144 -1 -1 10500 1;
#X floatatom 261 126 5 0 0 0 - - -;
#X msg 309 65 damping \$1;
#X obj 312 44 hsl 128 15 0 1 0 0 empty damping damping -2 -6 0 8 -262144
-1 -1 7100 1;
#X msg 316 207 wet \$1;
#X msg 315 265 dry \$1;
#X obj 318 187 hsl 128 15 0 1 0 0 empty wet wet -2 -6 0 8 -262144 -1
-1 12700 1;
#X obj 318 244 hsl 128 15 0 1 0 0 empty dry dry -2 -6 0 8 -262144 -1
-1 900 1;
#X connect 0 0 3 0;
#X connect 0 1 4 0;
#X connect 1 0 0 0;
#X connect 2 0 0 1;
#X connect 5 0 0 0;
#X connect 6 0 5 0;
#X connect 6 0 7 0;
#X connect 8 0 0 0;
#X connect 9 0 8 0;
#X connect 10 0 0 0;
#X connect 11 0 0 0;
#X connect 12 0 10 0;
#X connect 13 0 11 0;
#X restore 193 420 pd riverbero;
#X text 433 358 strumenti;
#X text 5 260 synth1;
#X text 58 260 synth2;
#X text 128 260 rhythm1;
#X text 196 260 rhythm2;
#X obj 810 32 loadometer;
#X obj 618 649 dac~;
#X obj 682 59 notein;
#X text 724 59 MIDI in;
#X obj 682 86 mtof;
#X obj 746 86 / 127;
#X text 669 8 Uses MIDI for demonstration purposes \, but that can
easily be changed!;
#X obj 916 520 s \$0-OSC;
#X obj 875 86 r \$0-OSC;
#X obj 682 119 polywavesynth example 32 1;
#X text 960 411 Play a note via OSC;
#X text 916 367 Change oscillator carrier wave to pulse via OSC;
#X text 983 350 OSC ADDRESSING EXAMPLES;
#X obj 944 473 pipe 200;
#X obj 936 452 t a b;
#X text 753 101 amp.;
#X text 686 102 freq.;
#X obj 935 409 bng 15 250 50 0 empty empty empty 17 7 0 10 -262144
-1 -1;
#X msg 917 387 /example/osc/carrier/wave 3;
#X floatatom 931 254 5 -100 100 0 - - -;
#X obj 931 275 / 100;
#N canvas 454 179 217 230 pitchbend 0;
#X obj 24 22 nbx 2 14 0 99 0 1 empty empty semitones 32 8 0 10 -232576
-1 -1 4 256;
#X text 2 21 +/-;
#X obj 4 47 bendin;
#X obj 5 89 / 8192;
#X obj 5 125 * 1200;
#X obj 56 48 * 100;
#X text 47 123 convert to cents;
#X obj 4 68 - 8192;
#X obj 5 182 s \$0-OSC;
#X msg 5 153 /*/global/pitchbend \$1;
#X obj 125 15 inlet;
#X text 54 10 Range \, in;
#X connect 0 0 5 0;
#X connect 2 0 7 0;
#X connect 3 0 4 0;
#X connect 4 0 9 0;
#X connect 5 0 4 1;
#X connect 7 0 3 0;
#X connect 9 0 8 0;
#X connect 10 0 4 0;
#X coords 0 -1 1 1 110 40 1 0 0;
#X restore 931 296 pd pitchbend;
#X obj 1097 39 loadbang;
#X msg 1162 87 \; pd dsp 1;
#X obj 976 163 sssadpanel;
#X text 981 138 Save and load presets:;
#X msg 1162 123 \; pd dsp 0;
#X msg 976 117 example_presets/example1;
#X obj 1097 62 t b b;
#X obj 976 94 delay 1000;
#X text 951 32 This auto-loads an;
#X text 952 47 example preset \, with;
#X text 952 62 an example sound file.;
#X obj 1066 265 bng 20 250 50 0 empty empty AllNotesOff 0 -6 0 10 -262144
-1 -1;
#X obj 1066 319 s \$0-OSC;
#X msg 1066 293 /*/global/allnotesoff 1;
#X obj 683 439 *~;
#X obj 841 436 *~;
#X obj 726 410 receive in1Vol;
#X text 934 -35 Phil Stone - http://pkstonemusic.com;
#X msg 935 429 /example/note/amp 1 \, /example/note/freq 110;
#X msg 944 496 /example/note/amp 0 \, /example/note/freq 110;
#X obj 688 575 *~;
#X obj 861 575 *~;
#X obj 272 383 r~ send2R;
#X obj 194 383 r~ send2L;
#X obj 1000 540 set in1send2;
#X obj 719 460 receive in1send2;
#X obj 1003 591 receive send2vol;
#X obj 698 496 *~;
#X obj 858 499 *~;
#X connect 9 0 33 0;
#X connect 35 0 28 0;
#X connect 35 0 83 0;
#X connect 35 1 29 0;
#X connect 35 1 84 0;
#X connect 43 0 45 0;
#X connect 43 1 46 0;
#X connect 45 0 50 0;
#X connect 46 0 50 1;
#X connect 49 0 50 3;
#X connect 50 0 77 0;
#X connect 50 0 90 0;
#X connect 50 1 78 0;
#X connect 50 1 91 0;
#X connect 54 0 82 0;
#X connect 55 0 48 0;
#X connect 55 1 54 0;
#X connect 58 0 81 0;
#X connect 59 0 48 0;
#X connect 60 0 61 0;
#X connect 61 0 62 0;
#X connect 63 0 69 0;
#X connect 68 0 65 0;
#X connect 69 0 70 0;
#X connect 69 1 64 0;
#X connect 70 0 68 0;
#X connect 74 0 76 0;
#X connect 76 0 75 0;
#X connect 77 0 42 0;
#X connect 78 0 42 1;
#X connect 79 0 77 1;
#X connect 79 0 78 1;
#X connect 81 0 55 0;
#X connect 82 0 48 0;
#X connect 83 0 42 0;
#X connect 84 0 42 1;
#X connect 85 0 35 1;
#X connect 86 0 35 0;
#X connect 88 0 90 1;
#X connect 88 0 91 1;
#X connect 89 0 83 1;
#X connect 89 0 84 1;
#X connect 90 0 35 0;
#X connect 91 0 35 1;
