#N canvas 27 279 957 592 12;
#X obj 107 35 inlet~;
#X obj 299 546 outlet~;
#X obj 53 176 osc~ 1;
#X obj 53 202 *~ 0.3;
#X obj 202 201 *~ 0.3;
#X obj 357 199 *~ 0.3;
#X obj 514 171 osc~ 1;
#X obj 514 197 *~ 0.3;
#X obj 202 175 osc~ 0.995;
#X obj 357 173 osc~ 1.05;
#X obj 187 309 +~;
#X obj 489 307 +~;
#X obj 349 356 +~;
#X text 9 3 ABSTRACTION;
#X text 131 57 write incoming audio data to a delay line;
#X text 13 152 read osciling del time;
#X obj 282 475 +~;
#X obj 53 227 +~ 2;
#X obj 201 228 +~ 2;
#X obj 357 225 +~ 2;
#X obj 514 222 +~ 2;
#X obj 54 255 vd~ \$0-delChorus1;
#X obj 204 253 vd~ \$0-delChorus1;
#X obj 357 252 vd~ \$0-delChorus1;
#X obj 514 250 vd~ \$0-delChorus1;
#X obj 107 76 delwrite~ \$0-delChorus1 1000;
#X obj 492 85 inlet;
#X obj 631 79 inlet;
#X text 627 60 dry (%);
#X obj 716 77 inlet;
#X text 712 58 wet (%);
#X obj 197 411 *~ 1;
#X obj 350 436 *~ 1;
#X obj 254 386 / 100;
#X obj 432 405 / 100;
#X obj 349 393 *~ 0.25;
#X obj 296 513 *~ 0.5;
#X text 489 66 delay (msec);
#X text 389 2 Chorus effect \, borrowed from: http://www.jlpublishing.com/Csound.htm
;
#X connect 0 0 25 0;
#X connect 0 0 31 0;
#X connect 2 0 3 0;
#X connect 3 0 17 0;
#X connect 4 0 18 0;
#X connect 5 0 19 0;
#X connect 6 0 7 0;
#X connect 7 0 20 0;
#X connect 8 0 4 0;
#X connect 9 0 5 0;
#X connect 10 0 12 0;
#X connect 11 0 12 1;
#X connect 12 0 35 0;
#X connect 16 0 36 0;
#X connect 17 0 21 0;
#X connect 18 0 22 0;
#X connect 19 0 23 0;
#X connect 20 0 24 0;
#X connect 21 0 10 0;
#X connect 22 0 10 1;
#X connect 23 0 11 0;
#X connect 24 0 11 1;
#X connect 26 0 17 1;
#X connect 26 0 18 1;
#X connect 26 0 19 1;
#X connect 26 0 20 1;
#X connect 27 0 33 0;
#X connect 29 0 34 0;
#X connect 31 0 16 0;
#X connect 32 0 16 1;
#X connect 33 0 31 1;
#X connect 34 0 32 1;
#X connect 35 0 32 0;
#X connect 36 0 1 0;
