#N canvas 383 128 622 447 10;
#X declare -lib mrpeach;
#X declare -lib cyclone;
#X declare -lib cyclone;
#X declare -lib cyclone;
#X declare -lib cyclone;
#X declare -lib cyclone;
#X declare -lib cyclone;
#X declare -lib cyclone;
#X declare -lib cyclone;
#X declare -lib cyclone;
#X declare -lib cyclone;
#X declare -lib cyclone;
#X declare -lib cyclone;
#X declare -lib cyclone;
#X declare -lib cyclone;
#X declare -lib cyclone;
#X declare -lib cyclone;
#X declare -lib cyclone;
#X declare -lib cyclone;
#X declare -lib cyclone;
#X declare -lib cyclone;
#X declare -lib cyclone;
#X declare -lib cyclone;
#X declare -lib cyclone;
#X declare -lib cyclone;
#X declare -lib cyclone;
#X declare -lib cyclone;
#X declare -lib cyclone;
#X declare -lib cyclone;
#X declare -lib cyclone;
#X declare -lib cyclone;
#X declare -lib cyclone;
#X declare -lib cyclone;
#X obj 100 392 dac~;
#X obj 22 25 notein;
#X text 66 25 MIDI in;
#X obj 22 52 mtof;
#X obj 86 52 / 127;
#X msg 252 276 \; pd dsp 1;
#X msg 252 310 \; pd dsp 0;
#X text 450 61 select pulse carrier;
#X text 249 142 inlets:;
#X text 248 209 arguments:;
#X text 259 238 2: number of voices;
#X text 27 411 Phil Stone - http://pkstonemusic.com;
#X text 231 14 OSC parameter addressing (won't change visual controls
or affect state-saving):;
#X obj 215 51 r \$0-OSC;
#X obj 390 63 s \$0-OSC;
#X text 259 224 1: synth name (used for OSC and state-saving);
#X obj 22 79 polywavesynth test 32 1;
#X text 259 252 3: voice stealing 0-off 1-on;
#X text 53 53 freq.;
#X text 122 53 amp.;
#X text 260 154 1 - note frequency...initiates attack;
#X text 260 167 2 - note amplitude (0.0 - 1.0);
#X msg 390 37 /test/osc/carrier/wave 3;
#X text 252 87 You can change any of the other parameters (or trigger
notes) with similar messages. See the OSC implementation chart in the
online documentation for more details.;
#X text 89 4 Version 4;
#X text 260 180 3 - "mute" - noteons are ignored when this is non-zero
;
#X text 260 192 4 - OSC inlet;
#X connect 1 0 3 0;
#X connect 1 1 4 0;
#X connect 3 0 16 0;
#X connect 4 0 16 1;
#X connect 13 0 16 3;
#X connect 16 0 0 0;
#X connect 16 1 0 1;
#X connect 22 0 14 0;
