#N canvas 536 68 593 546 10;
#X declare -lib mrpeach;
#X declare -lib cyclone;
#X declare -lib cyclone;
#X declare -lib cyclone;
#X declare -lib cyclone;
#X declare -lib cyclone;
#X declare -lib cyclone;
#X declare -lib cyclone;
#X declare -lib cyclone;
#X declare -lib cyclone;
#X declare -lib cyclone;
#X declare -lib cyclone;
#X declare -lib cyclone;
#X declare -lib cyclone;
#X declare -lib cyclone;
#X declare -lib cyclone;
#X declare -lib cyclone;
#X declare -lib cyclone;
#X declare -lib cyclone;
#X declare -lib cyclone;
#X declare -lib cyclone;
#X declare -lib cyclone;
#X declare -lib cyclone;
#X declare -lib cyclone;
#X declare -lib cyclone;
#X declare -lib cyclone;
#X declare -lib cyclone;
#X declare -lib cyclone;
#X declare -lib cyclone;
#X declare -lib cyclone;
#X declare -lib cyclone;
#X declare -lib cyclone;
#X declare -lib cyclone;
#X obj 155 23 loadometer;
#X obj 105 423 dac~;
#X obj 27 50 notein;
#X text 69 50 MIDI in;
#X obj 27 77 mtof;
#X obj 91 77 / 127;
#X text 14 -1 Uses MIDI for demonstration purposes \, but that can
easily be changed!;
#X text 18 469 Phil Stone - http://pkstonemusic.com;
#X obj 261 511 s \$0-OSC;
#X obj 220 77 r \$0-OSC;
#X obj 27 110 polywavesynth example 32 1;
#X text 305 402 Play a note via OSC;
#X text 261 358 Change oscillator carrier wave to pulse via OSC;
#X text 328 341 OSC ADDRESSING EXAMPLES;
#X obj 289 464 pipe 200;
#X obj 281 443 t a b;
#X text 98 92 amp.;
#X text 31 93 freq.;
#X obj 280 400 bng 15 250 50 0 empty empty empty 17 7 0 10 -262144
-1 -1;
#X msg 280 420 /example/note/amp 1 \, /example/note/freq 440;
#X msg 289 487 /example/note/amp 0 \, /example/note/freq 440;
#X msg 262 378 /example/osc/carrier/wave 3;
#X floatatom 276 245 5 -100 100 0 - - -;
#X obj 276 266 / 100;
#N canvas 454 179 217 230 pitchbend 0;
#X obj 24 22 nbx 2 14 0 99 0 1 empty empty semitones 32 8 0 10 -232576
-1 -1 4 256;
#X text 2 21 +/-;
#X obj 4 47 bendin;
#X obj 5 89 / 8192;
#X obj 5 125 * 1200;
#X obj 56 48 * 100;
#X text 47 123 convert to cents;
#X obj 4 68 - 8192;
#X obj 5 182 s \$0-OSC;
#X msg 5 153 /*/global/pitchbend \$1;
#X obj 125 15 inlet;
#X text 54 10 Range \, in;
#X connect 0 0 5 0;
#X connect 2 0 7 0;
#X connect 3 0 4 0;
#X connect 4 0 9 0;
#X connect 5 0 4 1;
#X connect 7 0 3 0;
#X connect 9 0 8 0;
#X connect 10 0 4 0;
#X coords 0 -1 1 1 110 40 1 0 0;
#X restore 276 287 pd pitchbend;
#X obj 442 30 loadbang;
#X msg 507 78 \; pd dsp 1;
#X obj 321 154 sssadpanel;
#X text 326 129 Save and load presets:;
#X msg 507 114 \; pd dsp 0;
#X msg 321 108 example_presets/example1;
#X obj 442 53 t b b;
#X obj 321 85 delay 1000;
#X text 296 23 This auto-loads an;
#X text 297 38 example preset \, with;
#X text 297 53 an example sound file.;
#X obj 411 256 bng 20 250 50 0 empty empty AllNotesOff 0 -6 0 10 -262144
-1 -1;
#X obj 411 310 s \$0-OSC;
#X msg 411 284 /*/global/allnotesoff 1;
#X connect 2 0 4 0;
#X connect 2 1 5 0;
#X connect 4 0 10 0;
#X connect 5 0 10 1;
#X connect 9 0 10 3;
#X connect 10 0 1 0;
#X connect 10 1 1 1;
#X connect 14 0 20 0;
#X connect 15 0 8 0;
#X connect 15 1 14 0;
#X connect 18 0 19 0;
#X connect 19 0 15 0;
#X connect 20 0 8 0;
#X connect 21 0 8 0;
#X connect 22 0 23 0;
#X connect 23 0 24 0;
#X connect 25 0 31 0;
#X connect 30 0 27 0;
#X connect 31 0 32 0;
#X connect 31 1 26 0;
#X connect 32 0 30 0;
#X connect 36 0 38 0;
#X connect 38 0 37 0;
