#N canvas 239 183 467 423 10;
#X obj 25 20 cnv 15 400 120 empty empty connection 20 12 0 14 -233017
-66577 0;
#X obj 26 144 cnv 15 400 60 empty empty unpacking 20 12 0 14 -204800
-66577 0;
#N canvas 852 501 324 171 IP 1;
#X obj 46 63 unpack f f f f f;
#X floatatom 44 117 3 0 0 0 - - -;
#X floatatom 94 117 3 0 0 0 - - -;
#X floatatom 145 117 3 0 0 0 - - -;
#X floatatom 195 117 3 0 0 0 - - -;
#X obj 45 12 inlet;
#X connect 0 0 1 0;
#X connect 0 1 2 0;
#X connect 0 2 3 0;
#X connect 0 3 4 0;
#X connect 5 0 0 0;
#X restore 179 93 pd IP;
#X obj 48 167 mrpeach/unpackOSC;
#X obj 25 207 cnv 15 400 180 empty empty messages 20 12 0 14 -204786
-66577 0;
#X floatatom 47 346 5 0 0 0 - - -;
#X obj 137 328 outlet;
#X obj 44 55 mrpeach/udpreceive 12000;
#X obj 49 233 mrpeach/routeOSC /test1 /test2 /test3;
#X obj 124 283 outlet;
#X obj 195 282 outlet;
#X obj 267 284 outlet;
#X connect 3 0 8 0;
#X connect 5 0 6 0;
#X connect 7 0 3 0;
#X connect 7 1 2 0;
#X connect 8 0 5 0;
#X connect 8 1 9 0;
#X connect 8 2 10 0;
#X connect 8 3 11 0;
