#N canvas 0 30 1278 683 12;
#X obj -310 394 tgl 15 0 \$0-power empty Sequencer 17 7 0 10 -258113
-1 -1 1 1;
#X obj -226 27 hradio 30 1 0 16 beat \$0-step Pitch_sequencer 0 -8
0 10 -257985 -1 -1 15;
#X obj -167 431 vsl 15 128 1 300 0 0 \$0-tempo empty Tempo_BPM 0 -9
0 10 -204800 -1 -1 5055 1;
#N canvas 580 91 505 441 metronome 0;
#X obj 60 214 metro 100;
#X floatatom 251 173 5 0 0 0 Tempo_BPM - -;
#X obj 60 265 bng 15 250 50 0 empty empty empty 17 7 0 10 -262144 -1
-1;
#X obj 125 185 /;
#X obj 190 64 t b f;
#X obj 298 20 loadbang;
#X text 325 54 Initial Tempo;
#X obj 122 96 60000;
#X floatatom 300 135 5 0 0 1 Bangs_per_beat - -;
#X obj 57 22 r \$0-power;
#X obj 193 23 r \$0-tempo;
#X obj 302 94 r \$0-bangs_per_beat;
#X obj 118 260 s \$0-metro;
#X obj 298 46 25;
#X obj 243 320 outlet;
#X obj 18 276 0;
#X obj 122 139 / 16;
#X connect 0 0 2 0;
#X connect 0 0 12 0;
#X connect 0 0 15 0;
#X connect 1 0 14 0;
#X connect 3 0 0 1;
#X connect 4 0 7 0;
#X connect 4 1 3 1;
#X connect 4 1 1 0;
#X connect 5 0 13 0;
#X connect 7 0 16 0;
#X connect 8 0 16 1;
#X connect 9 0 0 0;
#X connect 10 0 4 0;
#X connect 11 0 8 0;
#X connect 13 0 4 0;
#X connect 16 0 3 0;
#X restore 90 459 pd metronome;
#X floatatom -167 564 5 0 0 0 - - -;
#N canvas 419 91 468 432 step_selector 0;
#X obj 22 211 counter;
#X floatatom 22 250 5 0 0 0 - - -;
#X obj 131 24 loadbang;
#X obj 22 287 / 1;
#X obj 203 67 hradio 15 1 0 16 empty empty Step_length 0 -8 0 10 -204800
-1 -1 7;
#X obj 67 146 * 15;
#X obj 130 86 + 1;
#X floatatom 90 86 5 0 0 0 - - -;
#X obj 22 320 int;
#X floatatom 92 379 5 0 0 0 - - -;
#X obj 68 179 +;
#X obj 208 96 t i i;
#X obj 21 27 r \$0-metro;
#X obj 216 23 r \$0-step_length;
#X obj 22 377 s \$0-step;
#X floatatom 309 100 5 0 0 0 - - -;
#X obj 155 387 outlet;
#X connect 0 0 1 0;
#X connect 1 0 3 0;
#X connect 2 0 4 0;
#X connect 3 0 8 0;
#X connect 4 0 11 0;
#X connect 4 0 15 0;
#X connect 5 0 10 0;
#X connect 6 0 3 1;
#X connect 6 0 7 0;
#X connect 6 0 5 0;
#X connect 8 0 9 0;
#X connect 8 0 14 0;
#X connect 8 0 16 0;
#X connect 10 0 0 4;
#X connect 11 0 6 0;
#X connect 11 1 10 1;
#X connect 12 0 0 0;
#X connect 13 0 4 0;
#X restore 90 486 pd step_selector;
#X obj -226 60 vsl 30 256 1 100 1 0 \$0-pitch_step1 \$0-pitch_slide1
empty 0 -9 0 10 -204786 -1 -1 0 1;
#X obj -196 60 vsl 30 256 0 100 0 0 \$0-pitch_step2 \$0-pitch_slide2
empty 0 -9 0 10 -204786 -1 -1 0 1;
#X obj -166 60 vsl 30 256 0 100 0 0 \$0-pitch_step3 \$0-pitch_slide3
empty 0 -9 0 10 -204786 -1 -1 0 1;
#X obj -136 60 vsl 30 256 0 100 0 0 \$0-pitch_step4 \$0-pitch_slide4
empty 0 -9 0 10 -204786 -1 -1 0 1;
#X obj -106 60 vsl 30 256 0 100 0 0 \$0-pitch_step5 \$0-pitch_slide5
empty 0 -9 0 10 -204786 -1 -1 0 1;
#X obj -76 60 vsl 30 256 0 100 0 0 \$0-pitch_step6 \$0-pitch_slide6
empty 0 -9 0 10 -204786 -1 -1 0 1;
#X obj -46 60 vsl 30 256 0 100 0 0 \$0-pitch_step7 \$0-pitch_slide7
empty 0 -9 0 10 -204786 -1 -1 0 1;
#X obj -16 60 vsl 30 256 0 100 0 0 \$0-pitch_step8 \$0-pitch_slide8
empty 0 -9 0 10 -204786 -1 -1 0 1;
#X obj 14 60 vsl 30 256 0 100 0 0 \$0-pitch_step9 \$0-pitch_slide9
empty 0 -9 0 10 -204786 -1 -1 0 1;
#X obj 44 60 vsl 30 256 0 100 0 0 \$0-pitch_step10 \$0-pitch_slide10
empty 0 -9 0 10 -204786 -1 -1 0 1;
#X obj 74 60 vsl 30 256 0 100 0 0 \$0-pitch_step11 \$0-pitch_slide11
empty 0 -9 0 10 -204786 -1 -1 0 1;
#X obj 104 60 vsl 30 256 0 100 0 0 \$0-pitch_step12 \$0-pitch_slide12
empty 0 -9 0 10 -204786 -1 -1 0 1;
#X obj 134 60 vsl 30 256 0 100 0 0 \$0-pitch_step13 \$0-pitch_slide13
empty 0 -9 0 10 -204786 -1 -1 0 1;
#X obj 164 60 vsl 30 256 0 100 0 0 \$0-pitch_step14 \$0-pitch_slide14
empty 0 -9 0 10 -204786 -1 -1 0 1;
#X obj 194 60 vsl 30 256 0 100 0 0 \$0-pitch_step15 \$0-pitch_slide15
empty 0 -9 0 10 -204786 -1 -1 0 1;
#X obj 223 60 vsl 30 256 0 100 0 0 \$0-pitch_step16 \$0-pitch_slide16
empty 0 -9 0 10 -204786 -1 -1 0 1;
#X floatatom -225 320 4 0 0 0 - #0-pitch_step1 -;
#X floatatom -194 320 4 0 0 0 - #0-pitch_step2 -;
#X floatatom -165 320 4 0 0 0 - #0-pitch_step3 -;
#X floatatom -134 320 4 0 0 0 - #0-pitch_step4 -;
#X floatatom -105 320 4 0 0 0 - #0-pitch_step5 -;
#X floatatom -75 320 4 0 0 0 - #0-pitch_step6 -;
#X floatatom -45 320 4 0 0 0 - #0-pitch_step7 -;
#X floatatom -15 320 4 0 0 0 - #0-pitch_step8 -;
#X floatatom 15 320 4 0 0 0 - #0-pitch_step9 -;
#X floatatom 44 320 4 0 0 0 - #0-pitch_step10 -;
#X floatatom 74 320 4 0 0 0 - #0-pitch_step11 -;
#X floatatom 104 320 4 0 0 0 - #0-pitch_step12 -;
#X floatatom 134 320 4 0 0 0 - #0-pitch_step13 -;
#X floatatom 164 320 4 0 0 0 - #0-pitch_step14 -;
#X floatatom 194 320 4 0 0 0 - #0-pitch_step15 -;
#X floatatom 223 320 4 0 0 0 - #0-pitch_step16 -;
#X obj -95 437 vradio 15 1 0 16 \$0-step_length empty Step_length 0
-8 0 10 -204800 -1 -1 7;
#X obj -323 434 tgl 15 0 \$0-crazy_pitch empty Crazy_pitch 17 7 0 10
-261234 -1 -1 1 1;
#N canvas 145 99 1062 557 crazy_pitch 0;
#X obj 421 20 loadbang;
#X obj 478 65 tgl 15 0 empty empty empty 17 7 0 10 -262144 -1 -1 1
1;
#X obj 43 190 crazy_random;
#X obj 354 62 inlet;
#X text 312 39 Randomness tempo;
#X obj 143 189 crazy_random;
#X obj 243 188 crazy_random;
#X obj 341 188 crazy_random;
#X obj 438 188 crazy_random;
#X obj 539 188 crazy_random;
#X obj 638 188 crazy_random;
#X obj 739 188 crazy_random;
#X obj 45 315 crazy_random;
#X obj 145 314 crazy_random;
#X obj 245 313 crazy_random;
#X obj 343 313 crazy_random;
#X obj 440 313 crazy_random;
#X obj 541 313 crazy_random;
#X obj 640 313 crazy_random;
#X obj 741 313 crazy_random;
#X obj 499 21 r \$0-crazy_pitch;
#X obj 6 232 s \$0-pitch_slide1;
#X obj 134 235 s \$0-pitch_slide2;
#X obj 263 237 s \$0-pitch_slide3;
#X obj 391 238 s \$0-pitch_slide4;
#X obj 517 237 s \$0-pitch_slide5;
#X obj 644 237 s \$0-pitch_slide6;
#X obj 771 238 s \$0-pitch_slide7;
#X obj 899 237 s \$0-pitch_slide8;
#X obj 4 364 s \$0-pitch_slide9;
#X obj 130 365 s \$0-pitch_slide10;
#X obj 263 365 s \$0-pitch_slide11;
#X obj 396 363 s \$0-pitch_slide12;
#X obj 530 363 s \$0-pitch_slide13;
#X obj 662 362 s \$0-pitch_slide14;
#X obj 795 362 s \$0-pitch_slide15;
#X obj 928 360 s \$0-pitch_slide16;
#X obj 421 61 100;
#X connect 0 0 37 0;
#X connect 1 0 2 0;
#X connect 1 0 5 0;
#X connect 1 0 6 0;
#X connect 1 0 7 0;
#X connect 1 0 8 0;
#X connect 1 0 9 0;
#X connect 1 0 10 0;
#X connect 1 0 11 0;
#X connect 1 0 12 0;
#X connect 1 0 13 0;
#X connect 1 0 14 0;
#X connect 1 0 15 0;
#X connect 1 0 16 0;
#X connect 1 0 17 0;
#X connect 1 0 18 0;
#X connect 1 0 19 0;
#X connect 2 0 21 0;
#X connect 3 0 2 1;
#X connect 3 0 5 1;
#X connect 3 0 6 1;
#X connect 3 0 7 1;
#X connect 3 0 8 1;
#X connect 3 0 9 1;
#X connect 3 0 10 1;
#X connect 3 0 11 1;
#X connect 3 0 12 1;
#X connect 3 0 13 1;
#X connect 3 0 14 1;
#X connect 3 0 15 1;
#X connect 3 0 16 1;
#X connect 3 0 17 1;
#X connect 3 0 18 1;
#X connect 3 0 19 1;
#X connect 5 0 22 0;
#X connect 6 0 23 0;
#X connect 7 0 24 0;
#X connect 8 0 25 0;
#X connect 9 0 26 0;
#X connect 10 0 27 0;
#X connect 11 0 28 0;
#X connect 12 0 29 0;
#X connect 13 0 30 0;
#X connect 14 0 31 0;
#X connect 15 0 32 0;
#X connect 16 0 33 0;
#X connect 17 0 34 0;
#X connect 18 0 35 0;
#X connect 19 0 36 0;
#X connect 20 0 1 0;
#X connect 37 0 2 2;
#X connect 37 0 5 2;
#X connect 37 0 6 2;
#X connect 37 0 7 2;
#X connect 37 0 8 2;
#X connect 37 0 9 2;
#X connect 37 0 10 2;
#X connect 37 0 11 2;
#X connect 37 0 12 2;
#X connect 37 0 13 2;
#X connect 37 0 14 2;
#X connect 37 0 15 2;
#X connect 37 0 16 2;
#X connect 37 0 17 2;
#X connect 37 0 18 2;
#X connect 37 0 19 2;
#X restore 90 431 pd crazy_pitch;
#X obj -323 468 tgl 15 0 \$0-osc empty Oscillator 17 7 0 10 -261234
-1 -1 0 1;
#X obj -322 362 inlet;
#X text -279 363 On/Off;
#N canvas 121 22 985 770 ouput 0;
#X obj 309 76 select 0 1 2 3 4 5 6 7 8 9 10 11 12 13 14 15;
#X obj 87 250 f;
#X obj 199 250 f;
#X obj 307 252 f;
#X obj 414 254 f;
#X obj 523 253 f;
#X obj 633 254 f;
#X obj 740 256 f;
#X obj 856 256 f;
#X obj 83 345 f;
#X obj 197 345 f;
#X obj 310 344 f;
#X obj 419 344 f;
#X obj 528 347 f;
#X obj 638 349 f;
#X obj 743 350 f;
#X obj 855 349 f;
#X obj 467 514 outlet;
#X obj 309 28 r \$0-step;
#X obj 5 211 r \$0-pitch_step1;
#X obj 127 211 r \$0-pitch_step2;
#X obj 249 211 r \$0-pitch_step3;
#X obj 370 211 r \$0-pitch_step4;
#X obj 864 218 r \$0-pitch_step8;
#X obj 739 219 r \$0-pitch_step7;
#X obj 617 217 r \$0-pitch_step6;
#X obj 494 213 r \$0-pitch_step5;
#X obj 3 309 r \$0-pitch_step9;
#X obj 124 311 r \$0-pitch_step10;
#X obj 251 308 r \$0-pitch_step11;
#X obj 381 313 r \$0-pitch_step12;
#X obj 860 311 r \$0-pitch_step16;
#X obj 735 312 r \$0-pitch_step15;
#X obj 603 314 r \$0-pitch_step14;
#X obj 497 289 r \$0-pitch_step13;
#X connect 0 0 1 0;
#X connect 0 1 2 0;
#X connect 0 2 3 0;
#X connect 0 3 4 0;
#X connect 0 4 5 0;
#X connect 0 5 6 0;
#X connect 0 6 7 0;
#X connect 0 7 8 0;
#X connect 0 8 9 0;
#X connect 0 9 10 0;
#X connect 0 10 11 0;
#X connect 0 11 12 0;
#X connect 0 12 13 0;
#X connect 0 13 14 0;
#X connect 0 14 15 0;
#X connect 0 15 16 0;
#X connect 1 0 17 0;
#X connect 2 0 17 0;
#X connect 3 0 17 0;
#X connect 4 0 17 0;
#X connect 5 0 17 0;
#X connect 6 0 17 0;
#X connect 7 0 17 0;
#X connect 8 0 17 0;
#X connect 9 0 17 0;
#X connect 10 0 17 0;
#X connect 11 0 17 0;
#X connect 12 0 17 0;
#X connect 13 0 17 0;
#X connect 14 0 17 0;
#X connect 15 0 17 0;
#X connect 16 0 17 0;
#X connect 18 0 0 0;
#X connect 19 0 1 1;
#X connect 20 0 2 1;
#X connect 21 0 3 1;
#X connect 22 0 4 1;
#X connect 23 0 8 1;
#X connect 24 0 7 1;
#X connect 25 0 6 1;
#X connect 26 0 5 1;
#X connect 27 0 9 1;
#X connect 28 0 10 1;
#X connect 29 0 11 1;
#X connect 30 0 12 1;
#X connect 31 0 16 1;
#X connect 32 0 15 1;
#X connect 33 0 14 1;
#X connect 34 0 13 1;
#X restore 91 515 pd ouput;
#X obj 91 542 outlet;
#X obj 90 388 inlet;
#X obj -168 364 inlet;
#X text 134 388 Randomness tempo;
#X floatatom 43 545 5 0 0 0 - - -;
#X obj -16 519 outlet;
#X obj -24 570 outlet;
#X msg -270 550 120;
#X floatatom -41 611 5 0 0 0 - - -;
#X obj -269 636 loadbang;
#X msg -144 636 7;
#X obj -210 595 outlet;
#X connect 2 0 4 0;
#X connect 3 0 50 0;
#X connect 4 0 56 0;
#X connect 5 0 51 0;
#X connect 38 0 53 0;
#X connect 42 0 0 0;
#X connect 42 0 39 0;
#X connect 44 0 45 0;
#X connect 44 0 49 0;
#X connect 46 0 40 0;
#X connect 47 0 2 0;
#X connect 52 0 2 0;
#X connect 54 0 52 0;
#X connect 54 0 55 0;
#X connect 55 0 38 0;
