#N canvas 141 170 741 630 10;
#X obj 601 385 textfile;
#X msg 481 292 clear;
#X obj 601 309 list prepend add;
#X obj 601 335 list trim;
#X obj 86 493 textfile;
#X obj 86 523 s SSSAD;
#X obj 86 435 until;
#X msg 86 414 100;
#X text 81 545 also received inside sssad;
#X obj 463 378 s SSSAD_ADMIN;
#X obj 601 241 r SSSAD_ADMIN;
#X obj 601 285 route persist;
#X obj 601 263 list trim;
#X msg 463 320 save;
#X msg 477 351 set;
#X obj 154 520 s SSSAD_ADMIN;
#X msg 154 495 set;
#X obj 446 169 savepanel;
#X msg 446 422 write \$1;
#X obj 6 16 bng 14 250 50 0 \$0-save_as empty save_as 17 7 0 8 -260818
-1 -1;
#X obj 86 391 t b a;
#X msg 133 436 read \$1 \, rewind;
#X obj 86 282 openpanel;
#X text 118 414 Avoid loops. A bang normally also works.;
#X obj 86 368 symbol;
#X text 40 570 Hint: get creative with the [OSCroute] external!;
#X obj 446 146 r \$0-save_as;
#X obj 374 146 r \$0-save;
#X obj 6 34 bng 14 250 50 0 \$0-save empty save 17 7 0 8 -260818 -1
-1;
#X obj 6 52 bng 14 250 50 0 \$0-load empty load 17 7 0 8 -260818 -1
-1;
#X obj 86 259 r \$0-load;
#X obj 446 250 t a b b b;
#X obj 497 271 s SSSAD_SAVE;
#X obj 446 229 symbol;
#X obj 14 184 sel 0;
#X obj 74 228 s \$0/filename;
#X obj 119 346 r \$0/filename;
#X obj 520 168 r \$0/filename;
#X obj 344 250 s \$0/filename;
#X obj 446 191 t s s;
#X text 154 260 if the load button is pressed;
#X text 372 129 if save or save as are clicked;
#X obj 44 206 t b s;
#X obj 258 382 print filename;
#X obj 14 133 inlet;
#X text 59 133 set the filename if one is supplied;
#X obj 14 159 list append;
#X obj 86 303 t b s;
#X obj 113 324 s \$0/filename;
#X symbolatom 3 70 11 0 0 0 - #0-fname_sym -;
#X text 108 92 You must have sssad (from Frank Barknecht) in your path
to use this;
#X text 108 1 "This abstraction and all the other sssad state saving
stuff is due to the genius of Frank Barknecht. Any mistakes are purely
my own." -- so says Chris McKormick in his patch [sssad/panel] from
which this is copied \, with very slight modification: added the inlet
so load messages can be piped in.;
#X obj 456 501 ext13/strippath;
#X obj 456 476 r \$0/filename;
#X obj 456 527 s \$0-fname_sym;
#X connect 1 0 0 0;
#X connect 2 0 3 0;
#X connect 3 0 0 0;
#X connect 4 0 5 0;
#X connect 4 1 6 1;
#X connect 4 1 16 0;
#X connect 6 0 4 0;
#X connect 7 0 6 0;
#X connect 10 0 12 0;
#X connect 11 0 2 0;
#X connect 12 0 11 0;
#X connect 13 0 9 0;
#X connect 14 0 9 0;
#X connect 16 0 15 0;
#X connect 17 0 39 0;
#X connect 18 0 0 0;
#X connect 20 0 7 0;
#X connect 20 1 21 0;
#X connect 21 0 4 0;
#X connect 22 0 47 0;
#X connect 24 0 20 0;
#X connect 26 0 17 0;
#X connect 27 0 33 0;
#X connect 30 0 22 0;
#X connect 31 0 18 0;
#X connect 31 1 13 0;
#X connect 31 2 1 0;
#X connect 31 3 32 0;
#X connect 33 0 31 0;
#X connect 34 1 42 0;
#X connect 36 0 24 1;
#X connect 36 0 43 0;
#X connect 37 0 33 1;
#X connect 39 0 38 0;
#X connect 39 1 33 0;
#X connect 42 0 24 0;
#X connect 42 1 35 0;
#X connect 44 0 46 0;
#X connect 46 0 34 0;
#X connect 47 0 24 0;
#X connect 47 1 48 0;
#X connect 52 0 54 0;
#X connect 53 0 52 0;
#X coords 0 -1 1 1 85 86 1 0 0;
