#N canvas 0 30 1257 662 12;
#X declare -lib mrpeach;
#X declare -lib cyclone;
#X declare -lib cyclone;
#X declare -lib cyclone;
#X declare -lib cyclone;
#X declare -lib cyclone;
#X declare -lib cyclone;
#X declare -lib cyclone;
#X declare -lib cyclone;
#X declare -lib cyclone;
#X declare -lib cyclone;
#X declare -lib cyclone;
#X declare -lib cyclone;
#X declare -lib cyclone;
#X declare -lib cyclone;
#X declare -lib cyclone;
#X declare -lib cyclone;
#X declare -lib cyclone;
#X declare -lib cyclone;
#X declare -lib cyclone;
#X declare -lib cyclone;
#X declare -lib cyclone;
#X declare -lib cyclone;
#X declare -lib cyclone;
#X declare -lib cyclone;
#X declare -lib cyclone;
#X declare -lib cyclone;
#X declare -lib cyclone;
#X declare -lib cyclone;
#X declare -lib cyclone;
#X declare -lib cyclone;
#X declare -lib cyclone;
#X declare -lib cyclone;
#X obj 1 -39 cnv 20 400 300 empty empty inputs 20 12 0 14 -233017 -66577
0;
#X obj 13 124 vsl 15 128 0 1 0 0 \$0-in1Vol \$0-in1Volset 1 0 -8 0
8 -262144 -1 -1 12700 1;
#X msg 451 193 \; pd dsp 1;
#X msg 451 234 \; pd dsp 0;
#N canvas 0 22 466 316 cpu 0;
#X obj 124 253 outlet;
#X obj 118 168 cputime;
#X obj 118 28 loadbang;
#X obj 118 112 metro 1000;
#X msg 118 56 1;
#X floatatom 118 84 0 0 0 0 - - -;
#X obj 118 140 t b b;
#X obj 118 228 * 0.1;
#X obj 118 197 int;
#X text 163 84 <-- on/off;
#X connect 1 0 8 0;
#X connect 2 0 4 0;
#X connect 3 0 6 0;
#X connect 4 0 5 0;
#X connect 5 0 3 0;
#X connect 6 0 1 0;
#X connect 6 1 1 1;
#X connect 7 0 0 0;
#X connect 8 0 7 0;
#X restore 458 304 pd cpu;
#X obj 1 282 cnv 15 400 200 empty empty sends 20 12 0 14 -195568 -66577
0;
#X obj 1 -80 cnv 15 400 40 empty empty 4_channel_stereo_mixer 20 12
0 14 -195568 -66577 0;
#X obj 13 66 vsl 15 30 0 1 0 0 \$0-in1send1 \$0-in1send1set send1 0
-8 0 8 -262144 -1 -1 0 1;
#X obj 14 14 vsl 15 30 0 1 0 0 \$0-in1send2 \$0-in1send2set send2 0
-8 0 8 -262144 -1 -1 0 1;
#X text 13 485 TODO: add pan - add mute - add solo;
#X obj 459 326 nbx 5 14 -1e+37 1e+37 0 0 empty empty empty 0 -6 0 10
-258699 -1 -1 35 256;
#X obj 1 261 cnv 15 400 20 empty empty empty 20 12 0 14 -166441 -66577
0;
#N canvas 380 78 691 399 riverbero 0;
#X obj 92 159 freeverb~;
#X obj 80 125 inlet~;
#X obj 165 125 inlet~;
#X obj 76 207 outlet~;
#X obj 154 207 outlet~;
#X msg 305 126 roomsize \$1;
#X obj 308 106 hsl 128 15 0.5 1.02 1 0 empty roomsize room_size -2
-6 0 8 -262144 -1 -1 7921 1;
#X floatatom 261 126 5 0 0 0 - - -;
#X msg 309 65 damping \$1;
#X obj 312 44 hsl 128 15 0 1 0 0 empty damping damping -2 -6 0 8 -262144
-1 -1 1587 1;
#X msg 316 207 wet \$1;
#X msg 315 265 dry \$1;
#X obj 318 187 hsl 128 15 0 1 0 0 empty wet wet -2 -6 0 8 -262144 -1
-1 5969 1;
#X obj 318 244 hsl 128 15 0 1 0 0 empty dry dry -2 -6 0 8 -262144 -1
-1 0 1;
#X floatatom 403 215 5 0 0 0 - - -;
#X obj 568 121 loadbang;
#X msg 557 170 0.47;
#X msg 509 116 0.78;
#X floatatom 255 46 5 0 0 0 - - -;
#X msg 506 60 0.125;
#X connect 0 0 3 0;
#X connect 0 1 4 0;
#X connect 1 0 0 0;
#X connect 2 0 0 1;
#X connect 5 0 0 0;
#X connect 6 0 5 0;
#X connect 6 0 7 0;
#X connect 8 0 0 0;
#X connect 9 0 8 0;
#X connect 9 0 18 0;
#X connect 10 0 0 0;
#X connect 11 0 0 0;
#X connect 12 0 10 0;
#X connect 12 0 14 0;
#X connect 13 0 11 0;
#X connect 15 0 16 0;
#X connect 15 0 17 0;
#X connect 15 0 19 0;
#X connect 16 0 12 0;
#X connect 17 0 6 0;
#X connect 19 0 9 0;
#X restore 6 351 pd riverbero;
#X text 5 260 synth1;
#X obj 14 386 StereoChorus;
#X obj 732 -45 loadometer;
#X obj 327 636 dac~;
#X obj 593 -22 notein;
#X text 646 -18 MIDI in;
#X obj 617 9 mtof;
#X obj 668 9 / 127;
#X text 620 -79 Uses MIDI for demonstration purposes \, but that can
easily be changed!;
#X obj 838 443 s \$0-OSC;
#X obj 797 9 r \$0-OSC;
#X obj 604 42 polywavesynth example 32 1;
#X text 882 334 Play a note via OSC;
#X text 838 290 Change oscillator carrier wave to pulse via OSC;
#X text 905 273 OSC ADDRESSING EXAMPLES;
#X obj 866 396 pipe 200;
#X obj 858 375 t a b;
#X text 691 24 amp.;
#X obj 857 332 bng 15 250 50 0 empty empty empty 17 7 0 10 -262144
-1 -1;
#X msg 839 310 /example/osc/carrier/wave 3;
#X floatatom 853 177 5 -100 100 0 - - -;
#X obj 853 198 / 100;
#N canvas 454 179 217 230 pitchbend 0;
#X obj 24 22 nbx 2 14 0 99 0 1 empty empty semitones 32 8 0 10 -232576
-1 -1 4 256;
#X text 2 21 +/-;
#X obj 4 47 bendin;
#X obj 5 89 / 8192;
#X obj 5 125 * 1200;
#X obj 56 48 * 100;
#X text 47 123 convert to cents;
#X obj 4 68 - 8192;
#X obj 5 182 s \$0-OSC;
#X msg 5 153 /*/global/pitchbend \$1;
#X obj 125 15 inlet;
#X text 54 10 Range \, in;
#X connect 0 0 5 0;
#X connect 2 0 7 0;
#X connect 3 0 4 0;
#X connect 4 0 9 0;
#X connect 5 0 4 1;
#X connect 7 0 3 0;
#X connect 9 0 8 0;
#X connect 10 0 4 0;
#X coords 0 -1 1 1 110 40 1 0 0;
#X restore 853 219 pd pitchbend;
#X obj 1162 -54 loadbang;
#X msg 1227 -6 \; pd dsp 1;
#X obj 1062 66 sssadpanel;
#X text 1067 41 Save and load presets:;
#X msg 1227 30 \; pd dsp 0;
#X obj 1162 -13 t b b;
#X text 1022 -62 This auto-loads an;
#X text 1023 -47 example preset \, with;
#X text 1025 -35 an example sound file.;
#X obj 1078 170 bng 20 250 50 0 empty empty AllNotesOff 0 -6 0 10 -262144
-1 -1;
#X obj 1078 224 s \$0-OSC;
#X msg 1078 198 /*/global/allnotesoff 1;
#X obj 405 288 *~;
#X obj 408 320 *~;
#X text 856 -112 Phil Stone - http://pkstonemusic.com;
#X msg 857 352 /example/note/amp 1 \, /example/note/freq 110;
#X msg 866 419 /example/note/amp 0 \, /example/note/freq 110;
#X obj 614 513 *~;
#X obj 770 534 *~;
#X obj -68 520 *~;
#X obj 687 422 *~;
#X obj 655 -176 100;
#X obj 632 -196 loadbang;
#X obj 742 -214 / 60;
#X obj 742 -193 / 16;
#X obj 742 -235 * 1000;
#X obj 601 -147 makenote 100 100;
#X msg 734 16 bang;
#X obj 586 -285 inlet;
#X obj -166 155 maxlib/scale 0 127 0 1;
#N canvas 540 174 1278 683 playPadNotes 0;
#X msg 51 57 60;
#X msg 92 57 62;
#X msg 136 56 64;
#X text 53 27 C4;
#X text 96 26 D4;
#X text 137 27 E4;
#X text 179 25 F4;
#X text 219 26 G4;
#X text 258 26 A4;
#X text 303 25 B4;
#X text 343 25 C5;
#X text 384 25 D5;
#X msg 176 56 65;
#X msg 216 56 67;
#X msg 254 55 69;
#X msg 299 55 71;
#X msg 342 55 72;
#X msg 381 54 74;
#X obj -19 -248 receive13 \$1-pad1;
#X obj 47 -216 receive13 \$1-pad2;
#X obj 73 -188 receive13 \$1-pad3;
#X obj 138 -156 receive13 \$1-pad4;
#X obj 173 -120 receive13 \$1-pad5;
#X obj 238 -88 receive13 \$1-pad6;
#X obj 281 -60 receive13 \$1-pad7;
#X obj 330 -28 receive13 \$1-pad8;
#X obj 369 1 receive13 \$1-pad9;
#X obj 178 251 outlet;
#X obj 460 107 tgl 15 0 empty empty empty 17 7 0 10 -262144 -1 -1 0
1;
#X obj 177 223 spigot;
#X obj 178 190 pipe 5;
#X connect 0 0 30 0;
#X connect 1 0 30 0;
#X connect 2 0 30 0;
#X connect 12 0 30 0;
#X connect 13 0 30 0;
#X connect 14 0 30 0;
#X connect 15 0 30 0;
#X connect 16 0 30 0;
#X connect 17 0 30 0;
#X connect 18 0 0 0;
#X connect 18 0 28 0;
#X connect 19 0 1 0;
#X connect 19 0 28 0;
#X connect 20 0 2 0;
#X connect 20 0 28 0;
#X connect 21 0 12 0;
#X connect 21 0 28 0;
#X connect 22 0 13 0;
#X connect 22 0 28 0;
#X connect 23 0 14 0;
#X connect 23 0 28 0;
#X connect 24 0 15 0;
#X connect 24 0 28 0;
#X connect 25 0 16 0;
#X connect 25 0 28 0;
#X connect 26 0 17 0;
#X connect 26 0 28 0;
#X connect 28 0 29 1;
#X connect 29 0 27 0;
#X connect 30 0 29 0;
#X restore 742 -256 pd playPadNotes;
#X obj 319 526 receive13 \$1-mute;
#X obj -169 108 receive13 \$1-vol;
#X obj 822 147 vsl 15 128 -100 100 0 0 empty empty empty 0 -9 0 10
-262144 -1 -1 0 1;
#N canvas 2 117 1278 683 effects 0;
#X obj 86 -31 spigot;
#X obj 172 -32 receive13 \$1-se1;
#X obj 343 -23 spigot;
#X obj 53 160 spigot;
#X obj 317 175 spigot;
#X obj 594 183 spigot;
#X obj 814 187 spigot;
#X obj 420 -43 receive13 \$1-se2;
#X obj 131 140 receive13 \$1-se3;
#X obj 369 152 receive13 \$1-se4;
#X obj 343 19 s \$0-in1send2set;
#X obj 248 237 pack f f f f;
#X obj 189 312 s \$0-adsr;
#X obj 88 -63 receive13 \$1-ef1;
#X obj 315 -63 receive13 \$1-ef2;
#X obj 48 108 receive13 \$1-ef3;
#X obj 318 120 receive13 \$1-ef4;
#X obj 29 46 *;
#X floatatom 60 74 5 0 0 0 - - -;
#X floatatom 117 55 5 0 0 0 - - -;
#X msg 170 209 bang;
#X obj 408 301 unpack f f f f;
#X obj 391 343 * 5000;
#X obj 411 365 * 5000;
#X obj 447 389 * 5000;
#X obj 470 421 * 5000;
#X floatatom 325 432 5 0 0 0 - - -;
#X floatatom 357 472 5 0 0 0 - - -;
#X floatatom 405 501 5 0 0 0 - - -;
#X floatatom 470 522 5 0 0 0 - - -;
#X obj 662 152 receive13 \$1-se5;
#X obj 915 178 receive13 \$1-se6;
#X obj 590 125 receive13 \$1-ef5;
#X obj 814 153 receive13 \$1-ef6;
#X obj 86 19 s \$0-in1send1set;
#X connect 0 0 34 0;
#X connect 1 0 0 1;
#X connect 2 0 10 0;
#X connect 3 0 11 0;
#X connect 3 0 20 0;
#X connect 4 0 11 1;
#X connect 4 0 20 0;
#X connect 5 0 11 2;
#X connect 5 0 20 0;
#X connect 6 0 11 3;
#X connect 6 0 20 0;
#X connect 7 0 2 1;
#X connect 8 0 3 1;
#X connect 9 0 4 1;
#X connect 11 0 12 0;
#X connect 11 0 21 0;
#X connect 13 0 0 0;
#X connect 13 0 17 0;
#X connect 14 0 2 0;
#X connect 15 0 3 0;
#X connect 16 0 4 0;
#X connect 17 0 18 0;
#X connect 19 0 17 1;
#X connect 20 0 11 0;
#X connect 21 0 22 0;
#X connect 21 1 23 0;
#X connect 21 2 24 0;
#X connect 21 3 25 0;
#X connect 22 0 26 0;
#X connect 23 0 27 0;
#X connect 24 0 28 0;
#X connect 25 0 29 0;
#X connect 30 0 5 1;
#X connect 31 0 6 1;
#X connect 32 0 5 0;
#X connect 33 0 6 0;
#X restore 29 -171 pd effects;
#X text 636 24 freq.;
#X obj -134 221 loadbang;
#X msg -99 263 1;
#X obj 684 -281 receive13 \$1-On/Off;
#N canvas 0 30 1278 683 octave+/- 0;
#X obj -274 -158 receive13 \$1-tempo;
#X obj -141 -74 vsl 15 128 -4 4 0 0 empty empty empty 0 -9 0 10 -262144
-1 -1 0 1;
#X floatatom -7 61 5 0 0 0 - - -;
#X obj -31 27 int;
#X obj 72 100 * 12;
#X floatatom 377 104 5 0 0 0 - - -;
#X obj 174 -82 inlet;
#X floatatom 230 4 5 0 0 0 - - -;
#X obj 242 173 +;
#X floatatom 242 217 5 0 0 0 - - -;
#X obj 443 325 outlet;
#X obj -186 -111 maxlib/scale 0 200 -4 4;
#X connect 0 0 11 0;
#X connect 1 0 3 0;
#X connect 2 0 4 0;
#X connect 3 0 2 0;
#X connect 4 0 5 0;
#X connect 5 0 8 1;
#X connect 6 0 7 0;
#X connect 7 0 8 0;
#X connect 8 0 9 0;
#X connect 9 0 10 0;
#X connect 11 0 1 0;
#X restore 464 -168 pd octave+/-;
#X obj 596 -254 sequencer2 \$1;
#X obj 505 128 r \$0-adsr;
#X obj 239 1 autoscale 1 10000;
#X obj 659 372 receive \$0-in1send1;
#X obj 653 477 receive \$0-in1send2;
#X obj 637 329 receive \$0-in1Vol;
#X obj 236 -31 receive13 \$1-accX;
#X obj 417 54 spigot;
#X obj 438 -32 receive13 \$1-accE;
#X floatatom 480 13 5 0 0 0 - - -;
#X obj 634 -284 inlet;
#N canvas 0 30 1278 683 sendOSCSynth 0;
#X obj 618 264 loadbang;
#X obj 428 528 mrpeach/udpsend;
#X obj 515 456 mrpeach/packOSC;
#X msg 710 266 bang;
#X obj 152 166 bng 15 250 50 0 empty empty empty 17 7 0 10 -262144
-1 -1;
#X msg 529 319 connect 127.0.0.1 9000;
#X msg 156 324 send /\$1/bump;
#X obj 140 73 inlet;
#X obj 151 240 f \$1;
#X connect 0 0 5 0;
#X connect 2 0 1 0;
#X connect 3 0 5 0;
#X connect 4 0 8 0;
#X connect 5 0 1 0;
#X connect 6 0 2 0;
#X connect 7 0 4 0;
#X connect 8 0 6 0;
#X restore 380 -208 pd sendOSCSynth;
#N canvas 2 110 1278 683 selectPreset 0;
#X obj -58 305 outlet;
#X obj -43 -171 loadbang;
#X obj -89 -4 int \$1;
#X obj 63 -98 metro 5000;
#X obj -18 -23 t b;
#X floatatom -33 170 5 0 0 0 - - -;
#X msg -33 214 example_presets/\$1;
#X msg -33 137 \$1;
#X obj -102 -52 bng 15 250 50 0 empty empty empty 17 7 0 10 -262144
-1 -1;
#X obj -158 -103 receive13 \$1-cPresets;
#X connect 1 0 3 0;
#X connect 2 0 7 0;
#X connect 5 0 6 0;
#X connect 6 0 0 0;
#X connect 7 0 5 0;
#X connect 8 0 2 0;
#X connect 9 0 8 0;
#X restore 928 25 pd selectPreset;
#X obj 273 591 spigot~ 1;
#X obj 373 588 spigot~ 1;
#X obj 302 615 drum-machine1/catalanpan;
#X obj 555 596 receive13 \$1-pos;
#X connect 4 0 10 0;
#X connect 12 0 55 0;
#X connect 12 1 56 0;
#X connect 14 0 53 0;
#X connect 14 1 54 0;
#X connect 17 0 19 0;
#X connect 17 1 20 0;
#X connect 19 0 24 2;
#X connect 20 0 24 3;
#X connect 23 0 24 5;
#X connect 24 0 48 0;
#X connect 24 1 49 0;
#X connect 28 0 52 0;
#X connect 29 0 22 0;
#X connect 29 1 28 0;
#X connect 31 0 51 0;
#X connect 32 0 22 0;
#X connect 33 0 34 0;
#X connect 34 0 35 0;
#X connect 36 0 41 0;
#X connect 41 1 37 0;
#X connect 45 0 47 0;
#X connect 47 0 46 0;
#X connect 48 0 12 0;
#X connect 48 0 14 0;
#X connect 48 0 89 0;
#X connect 49 0 12 1;
#X connect 49 0 14 1;
#X connect 49 0 90 0;
#X connect 51 0 29 0;
#X connect 52 0 22 0;
#X connect 53 0 89 0;
#X connect 54 0 90 0;
#X connect 55 0 89 0;
#X connect 56 0 90 0;
#X connect 57 0 62 1;
#X connect 58 0 57 0;
#X connect 59 0 60 0;
#X connect 60 0 62 2;
#X connect 61 0 59 1;
#X connect 62 0 19 0;
#X connect 62 1 20 0;
#X connect 63 0 24 4;
#X connect 64 0 76 0;
#X connect 65 0 1 0;
#X connect 66 0 61 0;
#X connect 66 0 75 0;
#X connect 67 0 90 1;
#X connect 67 0 89 1;
#X connect 68 0 65 0;
#X connect 69 0 33 0;
#X connect 72 0 73 0;
#X connect 73 0 1 0;
#X connect 74 0 76 2;
#X connect 75 0 62 0;
#X connect 76 0 61 0;
#X connect 76 0 75 0;
#X connect 76 0 87 0;
#X connect 77 0 24 0;
#X connect 78 0 83 0;
#X connect 79 0 55 1;
#X connect 79 0 56 1;
#X connect 80 0 53 1;
#X connect 80 0 54 1;
#X connect 81 0 48 1;
#X connect 81 0 49 1;
#X connect 82 0 78 0;
#X connect 83 0 24 1;
#X connect 84 0 83 1;
#X connect 84 0 85 0;
#X connect 86 0 76 1;
#X connect 88 0 38 0;
#X connect 89 0 91 0;
#X connect 90 0 91 1;
#X connect 91 0 16 0;
#X connect 91 1 16 1;
#X connect 92 0 91 2;
